<!-- Generator: Adobe Illustrator 22.1.0, SVG Export Plug-In  -->
<svg version="1.1"
	 xmlns="http://www.w3.org/2000/svg" xmlns:xlink="http://www.w3.org/1999/xlink" xmlns:a="http://ns.adobe.com/AdobeSVGViewerExtensions/3.0/"
	 x="0px" y="0px" width="555.219px" height="27px" viewBox="0 0 555.219 27" style="enable-background:new 0 0 555.219 27;"
	 xml:space="preserve">
<style type="text/css">
	.st0{fill:url(#SVGID_1_);}
	.st1{fill:#FFFFFF;}
	.st2{fill:url(#SVGID_2_);}
	.st3{fill:url(#SVGID_3_);}
	.st4{font-family:'NimbusSanL-Reg';}
	.st5{font-size:12.6562px;}
	.st6{fill:url(#SVGID_4_);}
</style>
<defs>
</defs>
<linearGradient id="SVGID_1_" gradientUnits="userSpaceOnUse" x1="443" y1="13.5" x2="555.2188" y2="13.5">
	<stop  offset="0" style="stop-color:#ED353D"/>
	<stop  offset="1" style="stop-color:#B8181D"/>
</linearGradient>
<path class="st0" d="M543.219,27H455c-6.6,0-12-5.4-12-12v-3c0-6.6,5.4-12,12-12h88.219c6.6,0,12,5.4,12,12v3
	C555.219,21.6,549.819,27,543.219,27z"/>
<g>
	<path class="st1" d="M457.461,10.037h1.101v7.602h3.644v0.924h-4.744V10.037z"/>
	<path class="st1" d="M467.85,14.565h-3.314v3.073h3.694v0.924h-4.795v-8.525h4.604v0.923h-3.504v2.694h3.314V14.565z"/>
	<path class="st1" d="M471.04,15.881l-0.885,2.682h-1.139l2.896-8.525h1.328l2.909,8.525h-1.176l-0.911-2.682H471.04z
		 M473.836,15.021l-0.835-2.454c-0.189-0.557-0.316-1.062-0.442-1.556h-0.025c-0.127,0.506-0.266,1.024-0.431,1.543l-0.835,2.467
		H473.836z"/>
	<path class="st1" d="M477.407,10.15c0.557-0.113,1.354-0.177,2.113-0.177c1.176,0,1.935,0.215,2.466,0.695
		c0.431,0.38,0.671,0.962,0.671,1.619c0,1.126-0.708,1.872-1.606,2.176v0.038c0.658,0.228,1.05,0.835,1.252,1.721
		c0.278,1.188,0.481,2.011,0.658,2.34h-1.139c-0.139-0.24-0.329-0.974-0.569-2.036c-0.253-1.177-0.708-1.619-1.707-1.657h-1.038
		v3.693h-1.101V10.15z M478.508,14.034h1.126c1.177,0,1.923-0.646,1.923-1.619c0-1.101-0.797-1.581-1.961-1.594
		c-0.531,0-0.91,0.05-1.088,0.101V14.034z"/>
	<path class="st1" d="M484.216,18.562v-8.525h1.202l2.732,4.313c0.633,0.999,1.126,1.897,1.53,2.77l0.025-0.013
		c-0.102-1.138-0.126-2.176-0.126-3.504v-3.566h1.037v8.525h-1.113l-2.707-4.326c-0.595-0.948-1.164-1.923-1.594-2.846l-0.038,0.013
		c0.063,1.075,0.089,2.1,0.089,3.517v3.643H484.216z"/>
	<path class="st1" d="M502.412,14.818c-0.063-1.189-0.14-2.618-0.127-3.681h-0.038c-0.29,0.999-0.645,2.062-1.075,3.238
		l-1.505,4.136h-0.835l-1.379-4.061c-0.404-1.201-0.746-2.302-0.986-3.313h-0.025c-0.025,1.062-0.089,2.491-0.164,3.77l-0.229,3.655
		h-1.05l0.595-8.525h1.404l1.454,4.123c0.354,1.05,0.646,1.986,0.86,2.872h0.038c0.215-0.86,0.519-1.797,0.898-2.872l1.518-4.123
		h1.404l0.531,8.525h-1.075L502.412,14.818z"/>
	<path class="st1" d="M512.688,14.211c0,2.935-1.783,4.49-3.959,4.49c-2.252,0-3.833-1.745-3.833-4.325
		c0-2.707,1.683-4.479,3.96-4.479C511.184,9.897,512.688,11.682,512.688,14.211z M506.073,14.351c0,1.821,0.986,3.453,2.72,3.453
		c1.745,0,2.732-1.606,2.732-3.542c0-1.695-0.886-3.466-2.72-3.466C506.984,10.796,506.073,12.479,506.073,14.351z"/>
	<path class="st1" d="M514.122,10.15c0.557-0.113,1.354-0.177,2.113-0.177c1.176,0,1.935,0.215,2.466,0.695
		c0.431,0.38,0.671,0.962,0.671,1.619c0,1.126-0.708,1.872-1.606,2.176v0.038c0.658,0.228,1.05,0.835,1.252,1.721
		c0.278,1.188,0.481,2.011,0.658,2.34h-1.139c-0.139-0.24-0.329-0.974-0.569-2.036c-0.253-1.177-0.708-1.619-1.707-1.657h-1.038
		v3.693h-1.101V10.15z M515.223,14.034h1.126c1.177,0,1.923-0.646,1.923-1.619c0-1.101-0.797-1.581-1.961-1.594
		c-0.531,0-0.91,0.05-1.088,0.101V14.034z"/>
	<path class="st1" d="M525.346,14.565h-3.314v3.073h3.694v0.924h-4.795v-8.525h4.604v0.923h-3.504v2.694h3.314V14.565z"/>
</g>
<linearGradient id="SVGID_2_" gradientUnits="userSpaceOnUse" x1="0" y1="13.5" x2="112.2188" y2="13.5">
	<stop  offset="0" style="stop-color:#ED353D"/>
	<stop  offset="1" style="stop-color:#B8181D"/>
</linearGradient>
<path class="st2" d="M100.219,27H12C5.4,27,0,21.6,0,15v-3C0,5.4,5.4,0,12,0h88.219c6.6,0,12,5.4,12,12v3
	C112.219,21.6,106.819,27,100.219,27z"/>
<g>
	<path class="st1" d="M14.461,10.037h1.101v7.602h3.644v0.924h-4.744V10.037z"/>
	<path class="st1" d="M24.85,14.565h-3.314v3.073h3.694v0.924h-4.795v-8.525h4.604v0.923h-3.504v2.694h3.314V14.565z"/>
	<path class="st1" d="M28.04,15.881l-0.885,2.682h-1.139l2.896-8.525h1.328l2.909,8.525h-1.176l-0.911-2.682H28.04z M30.836,15.021
		l-0.835-2.454c-0.189-0.557-0.316-1.062-0.442-1.556h-0.025c-0.127,0.506-0.266,1.024-0.431,1.543l-0.835,2.467H30.836z"/>
	<path class="st1" d="M34.407,10.15c0.557-0.113,1.354-0.177,2.113-0.177c1.176,0,1.935,0.215,2.466,0.695
		c0.431,0.38,0.671,0.962,0.671,1.619c0,1.126-0.708,1.872-1.606,2.176v0.038c0.658,0.228,1.05,0.835,1.252,1.721
		c0.278,1.188,0.481,2.011,0.658,2.34h-1.139c-0.139-0.24-0.329-0.974-0.569-2.036c-0.253-1.177-0.708-1.619-1.707-1.657h-1.038
		v3.693h-1.101V10.15z M35.508,14.034h1.126c1.177,0,1.923-0.646,1.923-1.619c0-1.101-0.797-1.581-1.961-1.594
		c-0.531,0-0.91,0.05-1.088,0.101V14.034z"/>
	<path class="st1" d="M41.216,18.562v-8.525h1.202l2.732,4.313c0.633,0.999,1.126,1.897,1.53,2.77l0.025-0.013
		c-0.102-1.138-0.126-2.176-0.126-3.504v-3.566h1.037v8.525h-1.113l-2.707-4.326c-0.595-0.948-1.164-1.923-1.594-2.846l-0.038,0.013
		c0.063,1.075,0.089,2.1,0.089,3.517v3.643H41.216z"/>
	<path class="st1" d="M59.412,14.818c-0.063-1.189-0.14-2.618-0.127-3.681h-0.038c-0.29,0.999-0.645,2.062-1.075,3.238l-1.505,4.136
		h-0.835l-1.379-4.061c-0.404-1.201-0.746-2.302-0.986-3.313h-0.025c-0.025,1.062-0.089,2.491-0.164,3.77l-0.229,3.655h-1.05
		l0.595-8.525h1.404l1.454,4.123c0.354,1.05,0.646,1.986,0.86,2.872h0.038c0.215-0.86,0.519-1.797,0.898-2.872l1.518-4.123h1.404
		l0.531,8.525h-1.075L59.412,14.818z"/>
	<path class="st1" d="M69.688,14.211c0,2.935-1.783,4.49-3.959,4.49c-2.252,0-3.833-1.745-3.833-4.325
		c0-2.707,1.683-4.479,3.96-4.479C68.184,9.897,69.688,11.682,69.688,14.211z M63.073,14.351c0,1.821,0.986,3.453,2.72,3.453
		c1.745,0,2.732-1.606,2.732-3.542c0-1.695-0.886-3.466-2.72-3.466C63.984,10.796,63.073,12.479,63.073,14.351z"/>
	<path class="st1" d="M71.122,10.15c0.557-0.113,1.354-0.177,2.113-0.177c1.176,0,1.935,0.215,2.466,0.695
		c0.431,0.38,0.671,0.962,0.671,1.619c0,1.126-0.708,1.872-1.606,2.176v0.038c0.658,0.228,1.05,0.835,1.252,1.721
		c0.278,1.188,0.481,2.011,0.658,2.34h-1.139c-0.139-0.24-0.329-0.974-0.569-2.036c-0.253-1.177-0.708-1.619-1.707-1.657h-1.038
		v3.693h-1.101V10.15z M72.223,14.034h1.126c1.177,0,1.923-0.646,1.923-1.619c0-1.101-0.797-1.581-1.961-1.594
		c-0.531,0-0.91,0.05-1.088,0.101V14.034z"/>
	<path class="st1" d="M82.346,14.565h-3.314v3.073h3.694v0.924h-4.795v-8.525h4.604v0.923h-3.504v2.694h3.314V14.565z"/>
</g>
</svg>