<!-- Generator: Adobe Illustrator 22.1.0, SVG Export Plug-In  -->
<svg version="1.1"
	 xmlns="http://www.w3.org/2000/svg" xmlns:xlink="http://www.w3.org/1999/xlink" xmlns:a="http://ns.adobe.com/AdobeSVGViewerExtensions/3.0/"
	 x="0px" y="0px" width="246.667px" height="32.549px" viewBox="0 0 246.667 32.549"
	 style="enable-background:new 0 0 246.667 32.549;" xml:space="preserve">
<style type="text/css">
	.st0{fill:none;}
	.st1{fill:#CA1627;}
	.st2{font-family:'AcuminPro-Bold';}
	.st3{font-size:24px;}
	.st4{letter-spacing:2;}
	.st5{letter-spacing:1;}
</style>
<defs>
</defs>
<g>
	<rect y="3.048" class="st0" width="246.667" height="29.501"/>
	<path class="st1" d="M31.858,11.831c0,5.568-3.384,8.521-7.513,8.521c-4.272,0-7.272-3.312-7.272-8.209
		c0-5.137,3.192-8.497,7.513-8.497C29.002,3.646,31.858,7.031,31.858,11.831z M19.305,12.096c0,3.456,1.872,6.553,5.161,6.553
		c3.312,0,5.185-3.049,5.185-6.721c0-3.217-1.68-6.577-5.161-6.577C21.033,5.351,19.305,8.543,19.305,12.096z"/>
	<path class="st1" d="M38.834,3.911v9.576c0,3.625,1.608,5.161,3.769,5.161c2.4,0,3.937-1.585,3.937-5.161V3.911h2.112v9.433
		c0,4.968-2.616,7.009-6.12,7.009c-3.312,0-5.809-1.896-5.809-6.913V3.911H38.834z"/>
	<path class="st1" d="M54.403,4.127c1.056-0.216,2.568-0.336,4.008-0.336c2.232,0,3.672,0.408,4.68,1.319
		c0.816,0.721,1.272,1.824,1.272,3.072c0,2.137-1.344,3.553-3.048,4.129v0.072c1.248,0.432,1.992,1.584,2.376,3.264
		c0.528,2.257,0.912,3.816,1.248,4.44h-2.16c-0.264-0.456-0.624-1.848-1.08-3.864c-0.48-2.232-1.344-3.072-3.24-3.145h-1.968v7.009
		h-2.088V4.127z M56.491,11.495h2.136c2.232,0,3.648-1.224,3.648-3.072c0-2.088-1.512-3-3.72-3.024
		c-1.008,0-1.728,0.097-2.064,0.192V11.495z"/>
	<path class="st1" d="M90.835,12.983c-0.12-2.256-0.264-4.969-0.24-6.984h-0.072c-0.552,1.896-1.224,3.912-2.041,6.145l-2.856,7.849
		h-1.584l-2.616-7.705c-0.768-2.28-1.416-4.368-1.872-6.288h-0.048c-0.048,2.016-0.168,4.729-0.312,7.152l-0.432,6.937H76.77
		l1.128-16.177h2.665l2.76,7.824c0.672,1.992,1.224,3.769,1.632,5.448h0.072c0.408-1.632,0.984-3.408,1.704-5.448l2.88-7.824h2.664
		l1.008,16.177h-2.041L90.835,12.983z"/>
	<path class="st1" d="M112.517,11.831c0,5.568-3.384,8.521-7.513,8.521c-4.272,0-7.272-3.312-7.272-8.209
		c0-5.137,3.192-8.497,7.513-8.497C109.66,3.646,112.517,7.031,112.517,11.831z M99.964,12.096c0,3.456,1.872,6.553,5.161,6.553
		c3.312,0,5.184-3.049,5.184-6.721c0-3.217-1.68-6.577-5.16-6.577C101.692,5.351,99.964,8.543,99.964,12.096z"/>
	<path class="st1" d="M117.486,20.088V3.911h2.28l5.184,8.185c1.2,1.896,2.137,3.6,2.904,5.256l0.049-0.023
		c-0.193-2.16-0.24-4.129-0.24-6.648V3.911h1.968v16.177h-2.112l-5.136-8.208c-1.128-1.801-2.208-3.648-3.024-5.401l-0.072,0.024
		c0.12,2.04,0.168,3.984,0.168,6.673v6.912H117.486z"/>
	<path class="st1" d="M137.509,3.911v9.576c0,3.625,1.608,5.161,3.769,5.161c2.4,0,3.937-1.585,3.937-5.161V3.911h2.111v9.433
		c0,4.968-2.615,7.009-6.119,7.009c-3.312,0-5.809-1.896-5.809-6.913V3.911H137.509z"/>
	<path class="st1" d="M166.55,12.983c-0.119-2.256-0.264-4.969-0.24-6.984h-0.071c-0.552,1.896-1.224,3.912-2.04,6.145l-2.856,7.849
		h-1.585l-2.615-7.705c-0.769-2.28-1.416-4.368-1.873-6.288h-0.047c-0.049,2.016-0.168,4.729-0.312,7.152l-0.432,6.937h-1.992
		l1.127-16.177h2.665l2.761,7.824c0.672,1.992,1.224,3.769,1.631,5.448h0.072c0.408-1.632,0.984-3.408,1.705-5.448l2.88-7.824h2.664
		l1.009,16.177h-2.041L166.55,12.983z"/>
	<path class="st1" d="M182.792,12.504h-6.289v5.832h7.01v1.752h-9.098V3.911h8.737v1.752h-6.649v5.112h6.289V12.504z"/>
	<path class="st1" d="M188.16,20.088V3.911h2.281l5.184,8.185c1.2,1.896,2.137,3.6,2.904,5.256l0.049-0.023
		c-0.193-2.16-0.24-4.129-0.24-6.648V3.911h1.968v16.177h-2.112l-5.137-8.208c-1.128-1.801-2.208-3.648-3.023-5.401l-0.072,0.024
		c0.119,2.04,0.168,3.984,0.168,6.673v6.912H188.16z"/>
	<path class="st1" d="M209.328,5.687h-4.921V3.911h11.978v1.775h-4.944v14.401h-2.112V5.687z"/>
	<path class="st1" d="M220.163,17.544c0.937,0.576,2.305,1.056,3.744,1.056c2.137,0,3.385-1.128,3.385-2.76
		c0-1.513-0.863-2.376-3.048-3.217c-2.641-0.936-4.272-2.304-4.272-4.584c0-2.521,2.088-4.393,5.232-4.393
		c1.656,0,2.855,0.384,3.576,0.792l-0.576,1.704c-0.527-0.288-1.607-0.768-3.072-0.768c-2.208,0-3.049,1.32-3.049,2.424
		c0,1.513,0.984,2.257,3.217,3.12c2.736,1.057,4.129,2.377,4.129,4.753c0,2.496-1.849,4.656-5.665,4.656
		c-1.56,0-3.265-0.456-4.128-1.032L220.163,17.544z"/>
</g>
</svg>