<!-- Generator: Adobe Illustrator 22.1.0, SVG Export Plug-In  -->
<svg version="1.1"
	 xmlns="http://www.w3.org/2000/svg" xmlns:xlink="http://www.w3.org/1999/xlink" xmlns:a="http://ns.adobe.com/AdobeSVGViewerExtensions/3.0/"
	 x="0px" y="0px" width="157.505px" height="28.412px" viewBox="0 0 157.505 28.412"
	 style="enable-background:new 0 0 157.505 28.412;" xml:space="preserve">
<style type="text/css">
	.st0{fill:#FFFFFF;}
</style>
<defs>
</defs>
<g>
	<g>
		
			<ellipse id="XMLID_38_" transform="matrix(0.9999 -0.0144 0.0144 0.9999 -0.2098 0.1893)" class="st0" cx="13.042" cy="14.672" rx="13.042" ry="13.042"/>
		<path id="XMLID_37_" d="M14.191,11.619v-1.235c0-0.602,0.402-0.742,0.683-0.742c0.281,0,1.733,0,1.733,0V6.994l-2.387-0.01
			c-2.649,0-3.251,1.975-3.251,3.238v1.397H9.437v1.867v1.223h1.545c0,3.502,0,7.725,0,7.725h3.09c0,0,0-4.265,0-7.725h2.293
			l0.111-1.213l0.171-1.876H14.191z"/>
	</g>
	<g>
		<path id="XMLID_35_" class="st0" d="M91.794,15.37c0,7.203-5.839,13.042-13.042,13.042c-7.203,0-13.042-5.839-13.042-13.042
			c0-7.203,5.839-13.042,13.042-13.042C85.955,2.328,91.794,8.167,91.794,15.37z"/>
		<g>
			<path id="XMLID_34_" d="M87.418,14.232c-0.147,0-0.291,0-0.441,0c0-0.03,0-0.059,0-0.087c0-0.115,0-0.211,0-0.306
				c0.001-0.56,0.008-1.12-0.005-1.681c-0.002-0.091-0.097-0.257-0.153-0.258c-0.512-0.02-1.024-0.012-1.565-0.012
				c0,0.671,0,1.308,0,1.956c0,0.128,0,0.255,0,0.383c-0.784,0-1.538,0-2.347,0c0,0.175-0.005,0.295,0,0.412
				c0.017,0.424,0.037,0.848,0.056,1.271c0.414,0.015,0.827,0.034,1.242,0.043c0.346,0.006,0.691,0,1.075,0c0,0.807,0,1.557,0,2.308
				c0.575,0,1.11,0,1.692,0c0-0.765,0-1.517,0-2.313c0.796,0,1.548,0,2.314,0c0-0.446,0-0.866,0-1.296c0-0.139,0-0.277,0-0.419
				C88.663,14.232,88.048,14.232,87.418,14.232z"/>
			<path id="XMLID_33_" d="M80.775,14.035c-1.462,0.019-2.923,0.008-4.385,0.008c-0.417,0-0.836-0.007-1.253,0.009
				c-0.08,0.002-0.222,0.098-0.222,0.153c-0.015,0.842-0.011,1.685-0.011,2.572c1.206,0,2.373,0,3.58,0
				c-0.048,0.174-0.077,0.299-0.118,0.421c-0.55,1.628-2.231,2.435-4.033,2.139c-2.238-0.367-3.631-2.443-3.234-4.685
				c0.056-0.317,0.156-0.617,0.284-0.901c0.739-1.627,2.571-2.616,4.382-2.22c0.649,0.141,1.203,0.456,1.681,0.873
				c0.651-0.656,1.283-1.294,1.957-1.974c-0.044-0.034-0.106-0.079-0.164-0.127c-1.58-1.334-3.394-1.824-5.427-1.491
				c-2.922,0.478-5.024,2.779-5.495,5.467c-0.2,1.149-0.106,2.369,0.353,3.547c1.112,2.856,3.984,4.596,7.051,4.258
				c1.498-0.165,2.835-0.706,3.881-1.821c1.542-1.641,1.937-3.628,1.692-5.802C81.256,14.099,81.109,14.031,80.775,14.035z"/>
		</g>
	</g>
	<g>
		<path id="XMLID_31_" class="st0" d="M157.505,14.905c0,7.203-5.839,13.042-13.042,13.042c-7.203,0-13.042-5.839-13.042-13.042
			c0-7.203,5.839-13.042,13.042-13.042C151.666,1.863,157.505,7.702,157.505,14.905z"/>
		<path d="M152.032,11.721c0,0-0.15-1.111-0.613-1.599c-0.588-0.641-1.246-0.645-1.547-0.682c-2.163-0.162-5.405-0.162-5.405-0.162
			h-0.007c0,0-3.244,0-5.405,0.163c-0.302,0.036-0.959,0.04-1.548,0.682c-0.462,0.489-0.613,1.6-0.613,1.6s-0.155,1.303-0.155,2.607
			v0.157v1.064c0,1.305,0.155,2.608,0.155,2.608s0.151,1.11,0.613,1.599c0.589,0.642,1.361,0.621,1.704,0.688
			c1.236,0.123,5.252,0.162,5.252,0.162s3.246-0.006,5.409-0.168c0.301-0.038,0.959-0.04,1.547-0.683
			c0.463-0.488,0.613-1.598,0.613-1.598s0.155-1.303,0.155-2.608v-0.996v-0.225C152.187,13.024,152.032,11.721,152.032,11.721z
			 M147.041,14.777l-4.172,2.254l-0.001-3.471l0-1.055l1.882,1.024L147.041,14.777z"/>
	</g>
	<g>
		<path id="XMLID_26_" class="st0" d="M124.65,14.671c0,7.203-5.839,13.042-13.042,13.042c-7.203,0-13.042-5.839-13.042-13.042
			c0-7.203,5.839-13.042,13.042-13.042C118.81,1.63,124.65,7.469,124.65,14.671z"/>
		<path d="M116.346,6.947h-9.477c-1.646,0-2.985,1.339-2.985,2.985v3.154v1.161v5.163c0,1.646,1.339,2.985,2.985,2.985h9.477
			c1.646,0,2.986-1.339,2.986-2.985v-5.162v-1.163V9.932C119.332,8.286,117.992,6.947,116.346,6.947z M117.203,8.729l0.341-0.002
			v0.341v2.277l-2.609,0.009l-0.009-2.618L117.203,8.729z M109.403,13.087c0.495-0.685,1.297-1.133,2.205-1.133
			c0.907,0,1.71,0.448,2.205,1.133c0.06,0.083,0.113,0.17,0.163,0.259c0.221,0.393,0.351,0.844,0.351,1.326
			c0,1.499-1.221,2.719-2.719,2.719c-1.5,0-2.719-1.22-2.719-2.719c0-0.481,0.13-0.933,0.351-1.326
			C109.29,13.257,109.343,13.169,109.403,13.087z M117.827,19.411c0,0.817-0.665,1.481-1.481,1.481h-9.477
			c-0.817,0-1.48-0.664-1.48-1.481v-5.523v-0.801h2.306c-0.058,0.141-0.107,0.287-0.149,0.436c-0.104,0.365-0.162,0.751-0.162,1.149
			c0,2.329,1.895,4.224,4.224,4.224c2.329,0,4.224-1.895,4.224-4.224c0-0.399-0.058-0.784-0.162-1.149
			c-0.043-0.148-0.092-0.294-0.149-0.436h2.307v0.801V19.411z"/>
	</g>
	<g>
		<path id="XMLID_3_" class="st0" d="M58.939,13.042c0,7.203-5.839,13.042-13.042,13.042s-13.042-5.839-13.042-13.042
			C32.855,5.839,38.695,0,45.898,0S58.939,5.839,58.939,13.042z"/>
		<path id="XMLID_2_" d="M53.622,9.063c-0.568,0.248-1.178,0.415-1.82,0.491c0.655-0.386,1.157-0.997,1.394-1.727
			c-0.612,0.358-1.292,0.618-2.014,0.758C50.605,7.979,49.781,7.6,48.87,7.6c-1.75,0-3.169,1.397-3.169,3.12
			c0,0.245,0.028,0.482,0.081,0.711c-2.634-0.13-4.97-1.373-6.533-3.26c-0.272,0.461-0.43,0.997-0.43,1.569
			c0,1.082,0.561,2.037,1.41,2.597c-0.519-0.016-1.008-0.157-1.436-0.39c0,0.013,0,0.026,0,0.039c0,0.399,0.078,0.78,0.217,1.131
			c0.387,0.978,1.259,1.718,2.326,1.93c-0.267,0.07-0.546,0.109-0.836,0.109c-0.203,0-0.402-0.02-0.596-0.057
			c0.404,1.239,1.574,2.142,2.961,2.167c-1.085,0.838-2.451,1.336-3.937,1.336c-0.256,0-0.508-0.015-0.757-0.044
			c1.404,0.885,3.071,1.402,4.859,1.402c4.955,0,8-3.433,8.803-6.994c0.142-0.629,0.216-1.263,0.216-1.883
			c0-0.134-0.003-0.27-0.008-0.404C52.66,10.238,53.198,9.689,53.622,9.063z"/>
	</g>
</g>
</svg>