<!-- Generator: Adobe Illustrator 22.1.0, SVG Export Plug-In  -->
<svg version="1.1"
	 xmlns="http://www.w3.org/2000/svg" xmlns:xlink="http://www.w3.org/1999/xlink" xmlns:a="http://ns.adobe.com/AdobeSVGViewerExtensions/3.0/"
	 x="0px" y="0px" width="779.936px" height="205.519px" viewBox="0 0 779.936 205.519"
	 style="enable-background:new 0 0 779.936 205.519;" xml:space="preserve">
<style type="text/css">
	.st0{fill:none;}
	.st1{fill:#FFFFFF;}
	.st2{font-family:'AcuminPro-Bold';}
	.st3{font-size:19px;}
	.st4{font-family:'AcuminPro-Regular';}
	.st5{letter-spacing:1;}
	.st6{font-family:'Roboto-Black';}
	.st7{font-size:24px;}
	.st8{letter-spacing:2;}
</style>
<defs>
</defs>
<g>
	<rect x="426.005" y="65.616" class="st0" width="353.931" height="139.903"/>
	<path class="st1" d="M517.955,66.302h1.652v8.567c0,3.4-1.672,4.445-3.875,4.445c-0.607,0-1.349-0.133-1.767-0.304l0.247-1.349
		c0.342,0.133,0.836,0.247,1.387,0.247c1.481,0,2.355-0.665,2.355-3.173V66.302z"/>
	<path class="st1" d="M524.967,66.302v7.58c0,2.868,1.271,4.084,2.982,4.084c1.899,0,3.115-1.254,3.115-4.084v-7.58h1.672v7.466
		c0,3.933-2.07,5.547-4.845,5.547c-2.622,0-4.597-1.501-4.597-5.471v-7.542H524.967z"/>
	<path class="st1" d="M539.367,79.105l-4.179-12.804h1.786l1.994,6.307c0.551,1.729,1.025,3.287,1.367,4.787h0.039
		c0.36-1.481,0.893-3.096,1.463-4.768l2.165-6.326h1.767l-4.578,12.804H539.367z"/>
	<path class="st1" d="M554.739,73.103h-4.977v4.616h5.547v1.387h-7.2V66.302h6.915v1.387h-5.262v4.046h4.977V73.103z"/>
	<path class="st1" d="M558.407,79.105V66.302h1.805l4.104,6.478c0.949,1.501,1.689,2.85,2.298,4.161l0.038-0.02
		c-0.152-1.71-0.189-3.268-0.189-5.262v-5.357h1.557v12.804h-1.671l-4.065-6.497c-0.893-1.425-1.748-2.888-2.394-4.274l-0.058,0.02
		c0.096,1.614,0.133,3.153,0.133,5.281v5.471H558.407z"/>
	<path class="st1" d="M573.511,66.302v12.804h-1.653V66.302H573.511z"/>
	<path class="st1" d="M577.35,66.302h1.652v11.417h5.471v1.387h-7.123V66.302z"/>
	<path class="st1" d="M593.897,73.103h-4.977v4.616h5.547v1.387h-7.2V66.302h6.915v1.387h-5.262v4.046h4.977V73.103z"/>
	<path class="st1" d="M602.315,77.092c0.74,0.456,1.823,0.836,2.963,0.836c1.691,0,2.679-0.893,2.679-2.185
		c0-1.196-0.684-1.881-2.413-2.546c-2.09-0.74-3.381-1.823-3.381-3.628c0-1.995,1.652-3.477,4.141-3.477
		c1.312,0,2.262,0.304,2.831,0.627l-0.456,1.349c-0.418-0.228-1.272-0.608-2.432-0.608c-1.748,0-2.412,1.045-2.412,1.919
		c0,1.197,0.779,1.786,2.545,2.47c2.166,0.836,3.268,1.881,3.268,3.762c0,1.976-1.463,3.686-4.482,3.686
		c-1.235,0-2.584-0.361-3.268-0.817L602.315,77.092z"/>
	<path class="st1" d="M615.291,67.707h-3.895v-1.405h9.479v1.405h-3.912v11.398h-1.672V67.707z"/>
	<path class="st1" d="M624.905,66.302v7.58c0,2.868,1.273,4.084,2.982,4.084c1.9,0,3.116-1.254,3.116-4.084v-7.58h1.671v7.466
		c0,3.933-2.07,5.547-4.844,5.547c-2.621,0-4.598-1.501-4.598-5.471v-7.542H624.905z"/>
	<path class="st1" d="M636.494,66.473c1.008-0.152,2.204-0.266,3.516-0.266c2.374,0,4.064,0.551,5.186,1.596
		c1.14,1.045,1.805,2.526,1.805,4.597c0,2.09-0.646,3.8-1.843,4.978c-1.196,1.197-3.173,1.843-5.661,1.843
		c-1.178,0-2.166-0.057-3.002-0.152V66.473z M638.148,77.795c0.418,0.076,1.026,0.095,1.671,0.095c3.534,0,5.453-1.976,5.453-5.433
		c0.019-3.021-1.691-4.939-5.187-4.939c-0.854,0-1.501,0.076-1.938,0.171V77.795z"/>
	<path class="st1" d="M656.729,73.103h-4.977v4.616h5.547v1.387h-7.2V66.302h6.915v1.387h-5.262v4.046h4.977V73.103z"/>
	<path class="st1" d="M660.397,79.105V66.302h1.805l4.104,6.478c0.949,1.501,1.689,2.85,2.298,4.161l0.038-0.02
		c-0.152-1.71-0.189-3.268-0.189-5.262v-5.357h1.557v12.804h-1.671l-4.065-6.497c-0.893-1.425-1.748-2.888-2.394-4.274l-0.058,0.02
		c0.096,1.614,0.133,3.153,0.133,5.281v5.471H660.397z"/>
	<path class="st1" d="M676.28,67.707h-3.895v-1.405h9.48v1.405h-3.914v11.398h-1.672V67.707z"/>
	<path class="st1" d="M683.9,77.092c0.741,0.456,1.823,0.836,2.964,0.836c1.69,0,2.678-0.893,2.678-2.185
		c0-1.196-0.684-1.881-2.412-2.546c-2.09-0.74-3.381-1.823-3.381-3.628c0-1.995,1.652-3.477,4.141-3.477
		c1.311,0,2.261,0.304,2.83,0.627l-0.455,1.349c-0.418-0.228-1.273-0.608-2.432-0.608c-1.748,0-2.413,1.045-2.413,1.919
		c0,1.197,0.779,1.786,2.546,2.47c2.166,0.836,3.268,1.881,3.268,3.762c0,1.976-1.463,3.686-4.483,3.686
		c-1.235,0-2.583-0.361-3.268-0.817L683.9,77.092z"/>
	<path class="st1" d="M441.424,113.105v-5.433l-4.046-7.371h1.881l1.805,3.533c0.493,0.969,0.874,1.748,1.272,2.641h0.038
		c0.36-0.836,0.798-1.672,1.292-2.641l1.843-3.533h1.88l-4.293,7.352v5.452H441.424z"/>
	<path class="st1" d="M456.623,108.433c0,3.4-2.355,4.882-4.578,4.882c-2.488,0-4.407-1.823-4.407-4.73
		c0-3.077,2.014-4.882,4.56-4.882C454.838,103.702,456.623,105.621,456.623,108.433z M449.328,108.527
		c0,2.014,1.159,3.533,2.793,3.533c1.596,0,2.793-1.5,2.793-3.571c0-1.558-0.779-3.533-2.755-3.533S449.328,106.779,449.328,108.527
		z"/>
	<path class="st1" d="M467.377,110.598c0,0.95,0.02,1.786,0.076,2.508h-1.481l-0.095-1.501h-0.038
		c-0.437,0.741-1.405,1.71-3.04,1.71c-1.443,0-3.172-0.798-3.172-4.027v-5.376h1.672v5.091c0,1.748,0.531,2.926,2.051,2.926
		c1.121,0,1.9-0.778,2.204-1.52c0.095-0.247,0.151-0.551,0.151-0.854v-5.643h1.672V110.598z"/>
	<path class="st1" d="M471.103,106.779c0-1.082-0.019-2.014-0.075-2.868h1.462l0.058,1.805h0.076
		c0.418-1.234,1.424-2.014,2.545-2.014c0.189,0,0.323,0.019,0.475,0.057v1.577c-0.17-0.038-0.342-0.057-0.569-0.057
		c-1.179,0-2.014,0.893-2.241,2.146c-0.039,0.228-0.076,0.494-0.076,0.778v4.901h-1.653V106.779z"/>
	<path class="st1" d="M483.243,106.913c0-1.179-0.038-2.128-0.075-3.002h1.5l0.076,1.577h0.038c0.684-1.121,1.767-1.786,3.267-1.786
		c2.223,0,3.895,1.881,3.895,4.673c0,3.306-2.014,4.939-4.179,4.939c-1.216,0-2.28-0.531-2.831-1.443h-0.037v4.996h-1.653V106.913z
		 M484.897,109.363c0,0.247,0.037,0.475,0.076,0.684c0.303,1.159,1.311,1.957,2.507,1.957c1.767,0,2.792-1.443,2.792-3.553
		c0-1.843-0.969-3.419-2.734-3.419c-1.141,0-2.204,0.816-2.527,2.07c-0.057,0.209-0.113,0.456-0.113,0.684V109.363z"/>
	<path class="st1" d="M500.096,113.105l-0.133-1.158h-0.058c-0.513,0.722-1.501,1.367-2.812,1.367c-1.861,0-2.812-1.311-2.812-2.641
		c0-2.223,1.976-3.438,5.528-3.419v-0.19c0-0.76-0.209-2.128-2.09-2.128c-0.855,0-1.748,0.267-2.394,0.685l-0.38-1.103
		c0.76-0.493,1.861-0.816,3.021-0.816c2.812,0,3.495,1.919,3.495,3.762v3.438c0,0.798,0.038,1.576,0.152,2.203H500.096z
		 M499.848,108.413c-1.823-0.038-3.895,0.285-3.895,2.071c0,1.083,0.723,1.596,1.578,1.596c1.196,0,1.956-0.76,2.223-1.539
		c0.057-0.171,0.094-0.361,0.094-0.532V108.413z"/>
	<path class="st1" d="M504.883,111.396c0.494,0.323,1.369,0.665,2.204,0.665c1.216,0,1.786-0.607,1.786-1.367
		c0-0.798-0.475-1.235-1.71-1.691c-1.653-0.589-2.432-1.5-2.432-2.603c0-1.481,1.196-2.697,3.173-2.697
		c0.931,0,1.748,0.266,2.26,0.57l-0.418,1.216c-0.36-0.229-1.025-0.532-1.88-0.532c-0.988,0-1.539,0.569-1.539,1.254
		c0,0.76,0.551,1.102,1.748,1.558c1.596,0.607,2.413,1.405,2.413,2.773c0,1.615-1.254,2.755-3.439,2.755
		c-1.006,0-1.938-0.247-2.584-0.627L504.883,111.396z"/>
	<path class="st1" d="M515.6,101.271v2.641h2.393v1.272H515.6v4.959c0,1.14,0.322,1.785,1.254,1.785c0.437,0,0.76-0.057,0.969-0.114
		l0.076,1.254c-0.324,0.134-0.836,0.229-1.482,0.229c-0.779,0-1.406-0.247-1.805-0.703c-0.475-0.494-0.646-1.311-0.646-2.394v-5.016
		h-1.424v-1.272h1.424v-2.204L515.6,101.271z"/>
	<path class="st1" d="M533.743,99.618v11.113c0,0.816,0.019,1.747,0.076,2.374h-1.501l-0.076-1.596h-0.037
		c-0.514,1.026-1.635,1.805-3.135,1.805c-2.223,0-3.934-1.881-3.934-4.673c-0.018-3.059,1.881-4.939,4.123-4.939
		c1.406,0,2.355,0.665,2.773,1.405h0.038v-5.489H533.743z M532.072,107.653c0-0.209-0.019-0.494-0.075-0.703
		c-0.248-1.063-1.16-1.938-2.413-1.938c-1.729,0-2.755,1.52-2.755,3.553c0,1.861,0.912,3.4,2.717,3.4
		c1.121,0,2.146-0.741,2.451-1.995c0.057-0.228,0.075-0.455,0.075-0.722V107.653z"/>
	<path class="st1" d="M545.789,108.433c0,3.4-2.355,4.882-4.578,4.882c-2.488,0-4.408-1.823-4.408-4.73
		c0-3.077,2.015-4.882,4.561-4.882C544.004,103.702,545.789,105.621,545.789,108.433z M538.494,108.527
		c0,2.014,1.158,3.533,2.793,3.533c1.596,0,2.793-1.5,2.793-3.571c0-1.558-0.779-3.533-2.756-3.533
		C539.35,104.956,538.494,106.779,538.494,108.527z"/>
	<path class="st1" d="M549.781,108.812c0.038,2.261,1.481,3.191,3.153,3.191c1.197,0,1.919-0.209,2.545-0.475l0.285,1.196
		c-0.588,0.267-1.596,0.57-3.059,0.57c-2.83,0-4.521-1.862-4.521-4.636s1.635-4.958,4.312-4.958c3.002,0,3.8,2.641,3.8,4.331
		c0,0.342-0.038,0.608-0.057,0.779H549.781z M554.682,107.615c0.019-1.063-0.438-2.716-2.318-2.716c-1.69,0-2.432,1.558-2.564,2.716
		H554.682z"/>
	<path class="st1" d="M559.09,111.396c0.494,0.323,1.369,0.665,2.204,0.665c1.216,0,1.786-0.607,1.786-1.367
		c0-0.798-0.475-1.235-1.71-1.691c-1.653-0.589-2.432-1.5-2.432-2.603c0-1.481,1.196-2.697,3.173-2.697
		c0.931,0,1.748,0.266,2.26,0.57l-0.418,1.216c-0.36-0.229-1.025-0.532-1.88-0.532c-0.988,0-1.539,0.569-1.539,1.254
		c0,0.76,0.551,1.102,1.748,1.558c1.596,0.607,2.413,1.405,2.413,2.773c0,1.615-1.254,2.755-3.439,2.755
		c-1.006,0-1.938-0.247-2.584-0.627L559.09,111.396z"/>
	<path class="st1" d="M572.77,106.399c0-0.949-0.019-1.729-0.075-2.488h1.481l0.096,1.52h0.037c0.456-0.874,1.52-1.729,3.04-1.729
		c1.272,0,3.249,0.76,3.249,3.913v5.49h-1.672v-5.3c0-1.482-0.552-2.717-2.129-2.717c-1.102,0-1.956,0.779-2.241,1.71
		c-0.075,0.209-0.114,0.494-0.114,0.778v5.528h-1.672V106.399z"/>
	<path class="st1" d="M592.586,108.433c0,3.4-2.355,4.882-4.578,4.882c-2.488,0-4.408-1.823-4.408-4.73
		c0-3.077,2.015-4.882,4.561-4.882C590.801,103.702,592.586,105.621,592.586,108.433z M585.291,108.527
		c0,2.014,1.158,3.533,2.793,3.533c1.596,0,2.793-1.5,2.793-3.571c0-1.558-0.779-3.533-2.756-3.533
		C586.147,104.956,585.291,106.779,585.291,108.527z"/>
	<path class="st1" d="M597.66,101.271v2.641h2.393v1.272h-2.393v4.959c0,1.14,0.322,1.785,1.254,1.785
		c0.437,0,0.76-0.057,0.969-0.114l0.076,1.254c-0.324,0.134-0.836,0.229-1.482,0.229c-0.779,0-1.406-0.247-1.805-0.703
		c-0.475-0.494-0.646-1.311-0.646-2.394v-5.016h-1.424v-1.272h1.424v-2.204L597.66,101.271z"/>
	<path class="st1" d="M615.804,99.618v11.113c0,0.816,0.019,1.747,0.076,2.374h-1.501l-0.076-1.596h-0.037
		c-0.514,1.026-1.635,1.805-3.135,1.805c-2.223,0-3.934-1.881-3.934-4.673c-0.018-3.059,1.881-4.939,4.123-4.939
		c1.406,0,2.355,0.665,2.773,1.405h0.038v-5.489H615.804z M614.132,107.653c0-0.209-0.019-0.494-0.075-0.703
		c-0.248-1.063-1.16-1.938-2.413-1.938c-1.729,0-2.755,1.52-2.755,3.553c0,1.861,0.912,3.4,2.717,3.4
		c1.121,0,2.146-0.741,2.451-1.995c0.057-0.228,0.075-0.455,0.075-0.722V107.653z"/>
	<path class="st1" d="M620.46,108.812c0.038,2.261,1.481,3.191,3.153,3.191c1.197,0,1.919-0.209,2.545-0.475l0.285,1.196
		c-0.588,0.267-1.596,0.57-3.059,0.57c-2.83,0-4.521-1.862-4.521-4.636s1.635-4.958,4.312-4.958c3.002,0,3.8,2.641,3.8,4.331
		c0,0.342-0.038,0.608-0.057,0.779H620.46z M625.362,107.615c0.019-1.063-0.438-2.716-2.318-2.716c-1.69,0-2.432,1.558-2.564,2.716
		H625.362z"/>
	<path class="st1" d="M630.169,113.105v-7.922h-1.292v-1.272h1.292v-0.494c0-2.432,1.425-4.008,4.009-4.008
		c0.854,0,1.861,0.266,2.336,0.607l-0.475,1.272c-0.398-0.284-1.121-0.531-1.938-0.531c-1.767,0-2.279,1.234-2.279,2.697v0.456
		h5.338v9.194h-1.652v-7.922h-3.686v7.922H630.169z"/>
	<path class="st1" d="M640.885,106.399c0-0.949-0.02-1.729-0.076-2.488h1.482l0.095,1.52h0.038c0.455-0.874,1.52-1.729,3.039-1.729
		c1.273,0,3.249,0.76,3.249,3.913v5.49h-1.672v-5.3c0-1.482-0.551-2.717-2.128-2.717c-1.102,0-1.957,0.779-2.242,1.71
		c-0.075,0.209-0.113,0.494-0.113,0.778v5.528h-1.672V106.399z"/>
	<path class="st1" d="M653.311,108.812c0.038,2.261,1.482,3.191,3.154,3.191c1.196,0,1.918-0.209,2.545-0.475l0.285,1.196
		c-0.589,0.267-1.596,0.57-3.059,0.57c-2.83,0-4.521-1.862-4.521-4.636s1.634-4.958,4.312-4.958c3.002,0,3.799,2.641,3.799,4.331
		c0,0.342-0.037,0.608-0.057,0.779H653.311z M658.212,107.615c0.019-1.063-0.437-2.716-2.317-2.716
		c-1.691,0-2.432,1.558-2.564,2.716H658.212z"/>
	<path class="st1" d="M668.435,103.911l2.014,5.434c0.209,0.607,0.437,1.329,0.589,1.88h0.038c0.171-0.551,0.36-1.254,0.589-1.918
		l1.824-5.396h1.767l-2.508,6.554c-1.196,3.153-2.014,4.769-3.153,5.757c-0.817,0.722-1.634,1.007-2.052,1.082l-0.418-1.405
		c0.418-0.133,0.969-0.399,1.462-0.817c0.457-0.36,1.026-1.007,1.406-1.861c0.076-0.171,0.133-0.304,0.133-0.399
		c0-0.095-0.037-0.228-0.113-0.437l-3.4-8.473H668.435z"/>
	<path class="st1" d="M685.857,108.433c0,3.4-2.355,4.882-4.578,4.882c-2.489,0-4.407-1.823-4.407-4.73
		c0-3.077,2.014-4.882,4.559-4.882C684.071,103.702,685.857,105.621,685.857,108.433z M678.562,108.527
		c0,2.014,1.159,3.533,2.792,3.533c1.596,0,2.793-1.5,2.793-3.571c0-1.558-0.779-3.533-2.754-3.533
		C679.416,104.956,678.562,106.779,678.562,108.527z"/>
	<path class="st1" d="M696.611,110.598c0,0.95,0.019,1.786,0.076,2.508h-1.481l-0.096-1.501h-0.037
		c-0.438,0.741-1.406,1.71-3.04,1.71c-1.444,0-3.173-0.798-3.173-4.027v-5.376h1.672v5.091c0,1.748,0.532,2.926,2.052,2.926
		c1.121,0,1.899-0.778,2.204-1.52c0.095-0.247,0.151-0.551,0.151-0.854v-5.643h1.672V110.598z"/>
	<path class="st1" d="M700.336,106.779c0-1.082-0.02-2.014-0.076-2.868h1.463l0.057,1.805h0.076
		c0.418-1.234,1.425-2.014,2.545-2.014c0.19,0,0.323,0.019,0.476,0.057v1.577c-0.171-0.038-0.343-0.057-0.569-0.057
		c-1.179,0-2.015,0.893-2.242,2.146c-0.038,0.228-0.076,0.494-0.076,0.778v4.901h-1.652V106.779z"/>
	<path class="st1" d="M712.647,113.105v-7.922h-1.291v-1.272h1.291v-0.437c0-1.292,0.285-2.47,1.064-3.211
		c0.627-0.608,1.463-0.854,2.242-0.854c0.588,0,1.102,0.133,1.424,0.266l-0.228,1.292c-0.247-0.114-0.589-0.209-1.063-0.209
		c-1.426,0-1.786,1.254-1.786,2.659v0.494h2.223v1.272H714.3v7.922H712.647z"/>
	<path class="st1" d="M726.668,110.598c0,0.95,0.02,1.786,0.076,2.508h-1.482l-0.094-1.501h-0.039
		c-0.437,0.741-1.405,1.71-3.039,1.71c-1.443,0-3.173-0.798-3.173-4.027v-5.376h1.672v5.091c0,1.748,0.532,2.926,2.052,2.926
		c1.121,0,1.9-0.778,2.203-1.52c0.096-0.247,0.152-0.551,0.152-0.854v-5.643h1.672V110.598z"/>
	<path class="st1" d="M732.407,101.271v2.641h2.394v1.272h-2.394v4.959c0,1.14,0.323,1.785,1.254,1.785
		c0.438,0,0.76-0.057,0.969-0.114l0.076,1.254c-0.323,0.134-0.836,0.229-1.482,0.229c-0.778,0-1.405-0.247-1.805-0.703
		c-0.475-0.494-0.646-1.311-0.646-2.394v-5.016h-1.425v-1.272h1.425v-2.204L732.407,101.271z"/>
	<path class="st1" d="M745.326,110.598c0,0.95,0.019,1.786,0.076,2.508h-1.482l-0.095-1.501h-0.038
		c-0.438,0.741-1.406,1.71-3.039,1.71c-1.444,0-3.174-0.798-3.174-4.027v-5.376h1.672v5.091c0,1.748,0.533,2.926,2.053,2.926
		c1.121,0,1.899-0.778,2.203-1.52c0.096-0.247,0.152-0.551,0.152-0.854v-5.643h1.672V110.598z"/>
	<path class="st1" d="M749.051,106.779c0-1.082-0.02-2.014-0.076-2.868h1.463l0.057,1.805h0.076
		c0.418-1.234,1.425-2.014,2.545-2.014c0.19,0,0.323,0.019,0.476,0.057v1.577c-0.171-0.038-0.343-0.057-0.569-0.057
		c-1.179,0-2.015,0.893-2.242,2.146c-0.038,0.228-0.076,0.494-0.076,0.778v4.901h-1.652V106.779z"/>
	<path class="st1" d="M756.955,108.812c0.037,2.261,1.48,3.191,3.152,3.191c1.197,0,1.92-0.209,2.546-0.475l0.285,1.196
		c-0.589,0.267-1.596,0.57-3.059,0.57c-2.831,0-4.521-1.862-4.521-4.636s1.634-4.958,4.312-4.958c3.001,0,3.8,2.641,3.8,4.331
		c0,0.342-0.038,0.608-0.057,0.779H756.955z M761.856,107.615c0.02-1.063-0.437-2.716-2.317-2.716c-1.69,0-2.432,1.558-2.565,2.716
		H761.856z"/>
	<path class="st1" d="M765.867,112.118c0-0.703,0.476-1.197,1.14-1.197c0.665,0,1.121,0.494,1.121,1.197
		c0,0.684-0.438,1.196-1.14,1.196C766.323,113.314,765.867,112.802,765.867,112.118z"/>
	<path class="st1" d="M449.754,138.688c-0.607,0.305-1.823,0.608-3.381,0.608c-3.609,0-6.326-2.28-6.326-6.479
		c0-4.008,2.717-6.725,6.688-6.725c1.596,0,2.602,0.342,3.039,0.569l-0.398,1.35c-0.627-0.305-1.521-0.532-2.584-0.532
		c-3.002,0-4.996,1.919-4.996,5.281c0,3.135,1.805,5.148,4.92,5.148c1.007,0,2.033-0.209,2.697-0.532L449.754,138.688z"/>
	<path class="st1" d="M460.832,134.433c0,3.4-2.355,4.882-4.578,4.882c-2.489,0-4.408-1.823-4.408-4.73
		c0-3.077,2.014-4.882,4.56-4.882C459.046,129.702,460.832,131.621,460.832,134.433z M453.537,134.527
		c0,2.014,1.158,3.533,2.792,3.533c1.596,0,2.793-1.5,2.793-3.571c0-1.558-0.779-3.533-2.755-3.533S453.537,132.779,453.537,134.527
		z"/>
	<path class="st1" d="M463.891,132.399c0-0.949-0.019-1.729-0.075-2.488h1.462l0.076,1.481h0.058c0.513-0.874,1.368-1.69,2.888-1.69
		c1.254,0,2.203,0.76,2.603,1.843h0.038c0.285-0.513,0.646-0.912,1.025-1.197c0.551-0.418,1.159-0.646,2.033-0.646
		c1.215,0,3.02,0.798,3.02,3.989v5.414h-1.633V133.9c0-1.767-0.646-2.83-1.995-2.83c-0.95,0-1.69,0.702-1.976,1.52
		c-0.076,0.228-0.133,0.532-0.133,0.836v5.68h-1.634v-5.509c0-1.463-0.646-2.526-1.919-2.526c-1.045,0-1.805,0.836-2.07,1.671
		c-0.096,0.247-0.133,0.532-0.133,0.817v5.547h-1.635V132.399z"/>
	<path class="st1" d="M481.619,134.812c0.037,2.261,1.481,3.191,3.153,3.191c1.196,0,1.919-0.209,2.546-0.475l0.285,1.196
		c-0.59,0.267-1.596,0.57-3.059,0.57c-2.831,0-4.521-1.862-4.521-4.636s1.633-4.958,4.312-4.958c3.001,0,3.799,2.641,3.799,4.331
		c0,0.342-0.037,0.608-0.057,0.779H481.619z M486.52,133.615c0.02-1.063-0.436-2.716-2.316-2.716c-1.691,0-2.432,1.558-2.565,2.716
		H486.52z"/>
	<path class="st1" d="M498.149,127.271v2.641h2.394v1.272h-2.394v4.959c0,1.14,0.323,1.785,1.254,1.785
		c0.438,0,0.76-0.057,0.969-0.114l0.076,1.254c-0.323,0.134-0.836,0.229-1.482,0.229c-0.778,0-1.405-0.247-1.805-0.703
		c-0.475-0.494-0.646-1.311-0.646-2.394v-5.016h-1.425v-1.272h1.425v-2.204L498.149,127.271z"/>
	<path class="st1" d="M511.58,134.433c0,3.4-2.355,4.882-4.578,4.882c-2.488,0-4.407-1.823-4.407-4.73
		c0-3.077,2.014-4.882,4.56-4.882C509.795,129.702,511.58,131.621,511.58,134.433z M504.285,134.527
		c0,2.014,1.159,3.533,2.793,3.533c1.596,0,2.793-1.5,2.793-3.571c0-1.558-0.779-3.533-2.755-3.533S504.285,132.779,504.285,134.527
		z"/>
	<path class="st1" d="M527.94,134.433c0,3.4-2.355,4.882-4.578,4.882c-2.488,0-4.408-1.823-4.408-4.73
		c0-3.077,2.015-4.882,4.561-4.882C526.155,129.702,527.94,131.621,527.94,134.433z M520.645,134.527
		c0,2.014,1.158,3.533,2.793,3.533c1.596,0,2.793-1.5,2.793-3.571c0-1.558-0.779-3.533-2.756-3.533
		C521.5,130.956,520.645,132.779,520.645,134.527z"/>
	<path class="st1" d="M538.694,136.598c0,0.95,0.02,1.786,0.076,2.508h-1.482l-0.094-1.501h-0.039
		c-0.437,0.741-1.405,1.71-3.039,1.71c-1.443,0-3.173-0.798-3.173-4.027v-5.376h1.672v5.091c0,1.748,0.532,2.926,2.052,2.926
		c1.121,0,1.9-0.778,2.203-1.52c0.096-0.247,0.152-0.551,0.152-0.854v-5.643h1.672V136.598z"/>
	<path class="st1" d="M542.418,132.779c0-1.082-0.019-2.014-0.075-2.868h1.462l0.058,1.805h0.076
		c0.418-1.234,1.425-2.014,2.546-2.014c0.189,0,0.322,0.019,0.475,0.057v1.577c-0.171-0.038-0.342-0.057-0.57-0.057
		c-1.178,0-2.014,0.893-2.241,2.146c-0.038,0.228-0.076,0.494-0.076,0.778v4.901h-1.653V132.779z"/>
	<path class="st1" d="M554.559,132.399c0-0.949-0.019-1.729-0.075-2.488h1.481l0.096,1.52h0.037c0.456-0.874,1.52-1.729,3.04-1.729
		c1.272,0,3.249,0.76,3.249,3.913v5.49h-1.672v-5.3c0-1.482-0.552-2.717-2.129-2.717c-1.102,0-1.956,0.779-2.241,1.71
		c-0.075,0.209-0.114,0.494-0.114,0.778v5.528h-1.672V132.399z"/>
	<path class="st1" d="M567.916,127.327c0.02,0.57-0.398,1.026-1.064,1.026c-0.588,0-1.006-0.456-1.006-1.026
		c0-0.589,0.437-1.045,1.045-1.045C567.518,126.282,567.916,126.738,567.916,127.327z M566.055,139.105v-9.194h1.672v9.194H566.055z
		"/>
	<path class="st1" d="M579.371,129.911c-0.037,0.665-0.076,1.405-0.076,2.526v5.339c0,2.108-0.417,3.4-1.311,4.198
		c-0.893,0.836-2.184,1.102-3.344,1.102c-1.102,0-2.316-0.266-3.058-0.76l0.417-1.273c0.608,0.381,1.559,0.723,2.698,0.723
		c1.71,0,2.964-0.894,2.964-3.211v-1.025h-0.038c-0.513,0.854-1.501,1.538-2.926,1.538c-2.28,0-3.913-1.938-3.913-4.483
		c0-3.115,2.032-4.882,4.141-4.882c1.596,0,2.471,0.836,2.869,1.596h0.038l0.075-1.387H579.371z M577.643,133.539
		c0-0.284-0.019-0.531-0.095-0.76c-0.304-0.969-1.12-1.767-2.337-1.767c-1.596,0-2.735,1.349-2.735,3.477
		c0,1.805,0.912,3.306,2.717,3.306c1.026,0,1.956-0.646,2.317-1.71c0.096-0.285,0.133-0.607,0.133-0.893V133.539z"/>
	<path class="st1" d="M583.021,125.618h1.672v5.736h0.038c0.266-0.475,0.684-0.893,1.197-1.178c0.493-0.285,1.082-0.475,1.709-0.475
		c1.234,0,3.211,0.76,3.211,3.933v5.471h-1.672v-5.281c0-1.481-0.551-2.735-2.128-2.735c-1.083,0-1.938,0.76-2.241,1.672
		c-0.096,0.228-0.114,0.475-0.114,0.798v5.547h-1.672V125.618z"/>
	<path class="st1" d="M596.453,127.271v2.641h2.395v1.272h-2.395v4.959c0,1.14,0.324,1.785,1.254,1.785
		c0.438,0,0.76-0.057,0.969-0.114l0.076,1.254c-0.322,0.134-0.836,0.229-1.481,0.229c-0.778,0-1.405-0.247-1.805-0.703
		c-0.476-0.494-0.646-1.311-0.646-2.394v-5.016h-1.426v-1.272h1.426v-2.204L596.453,127.271z"/>
	<path class="st1" d="M613.211,138.764c-0.438,0.229-1.406,0.532-2.641,0.532c-2.773,0-4.578-1.881-4.578-4.692
		c0-2.831,1.938-4.883,4.939-4.883c0.987,0,1.861,0.247,2.317,0.476l-0.38,1.292c-0.399-0.229-1.025-0.438-1.938-0.438
		c-2.109,0-3.249,1.558-3.249,3.477c0,2.128,1.368,3.438,3.191,3.438c0.95,0,1.577-0.247,2.052-0.456L613.211,138.764z"/>
	<path class="st1" d="M616.118,125.618h1.672v13.487h-1.672V125.618z"/>
	<path class="st1" d="M626.644,139.105l-0.133-1.158h-0.058c-0.513,0.722-1.5,1.367-2.811,1.367c-1.862,0-2.812-1.311-2.812-2.641
		c0-2.223,1.977-3.438,5.528-3.419v-0.19c0-0.76-0.209-2.128-2.089-2.128c-0.855,0-1.748,0.267-2.395,0.685l-0.38-1.103
		c0.761-0.493,1.862-0.816,3.021-0.816c2.812,0,3.496,1.919,3.496,3.762v3.438c0,0.798,0.037,1.576,0.152,2.203H626.644z
		 M626.397,134.413c-1.824-0.038-3.895,0.285-3.895,2.071c0,1.083,0.723,1.596,1.577,1.596c1.196,0,1.956-0.76,2.223-1.539
		c0.057-0.171,0.095-0.361,0.095-0.532V134.413z"/>
	<path class="st1" d="M631.432,137.396c0.494,0.323,1.369,0.665,2.204,0.665c1.216,0,1.786-0.607,1.786-1.367
		c0-0.798-0.475-1.235-1.71-1.691c-1.653-0.589-2.432-1.5-2.432-2.603c0-1.481,1.196-2.697,3.173-2.697
		c0.931,0,1.748,0.266,2.26,0.57l-0.418,1.216c-0.36-0.229-1.025-0.532-1.88-0.532c-0.988,0-1.539,0.569-1.539,1.254
		c0,0.76,0.551,1.102,1.748,1.558c1.596,0.607,2.413,1.405,2.413,2.773c0,1.615-1.254,2.755-3.439,2.755
		c-1.006,0-1.938-0.247-2.584-0.627L631.432,137.396z"/>
	<path class="st1" d="M639.907,137.396c0.494,0.323,1.367,0.665,2.203,0.665c1.216,0,1.786-0.607,1.786-1.367
		c0-0.798-0.476-1.235-1.71-1.691c-1.652-0.589-2.432-1.5-2.432-2.603c0-1.481,1.197-2.697,3.172-2.697
		c0.932,0,1.748,0.266,2.262,0.57l-0.418,1.216c-0.361-0.229-1.026-0.532-1.881-0.532c-0.988,0-1.539,0.569-1.539,1.254
		c0,0.76,0.551,1.102,1.748,1.558c1.596,0.607,2.412,1.405,2.412,2.773c0,1.615-1.254,2.755-3.438,2.755
		c-1.008,0-1.938-0.247-2.584-0.627L639.907,137.396z"/>
	<path class="st1" d="M649.539,134.812c0.037,2.261,1.481,3.191,3.153,3.191c1.196,0,1.919-0.209,2.546-0.475l0.285,1.196
		c-0.59,0.267-1.596,0.57-3.059,0.57c-2.831,0-4.521-1.862-4.521-4.636s1.633-4.958,4.312-4.958c3.001,0,3.799,2.641,3.799,4.331
		c0,0.342-0.037,0.608-0.057,0.779H649.539z M654.44,133.615c0.02-1.063-0.436-2.716-2.316-2.716c-1.691,0-2.432,1.558-2.565,2.716
		H654.44z"/>
	<path class="st1" d="M658.849,137.396c0.494,0.323,1.368,0.665,2.204,0.665c1.215,0,1.785-0.607,1.785-1.367
		c0-0.798-0.475-1.235-1.709-1.691c-1.653-0.589-2.432-1.5-2.432-2.603c0-1.481,1.196-2.697,3.172-2.697
		c0.932,0,1.748,0.266,2.261,0.57l-0.418,1.216c-0.36-0.229-1.026-0.532-1.88-0.532c-0.988,0-1.539,0.569-1.539,1.254
		c0,0.76,0.551,1.102,1.748,1.558c1.596,0.607,2.412,1.405,2.412,2.773c0,1.615-1.254,2.755-3.438,2.755
		c-1.007,0-1.938-0.247-2.584-0.627L658.849,137.396z"/>
	<path class="st1" d="M677.62,139.105l-0.133-1.158h-0.058c-0.513,0.722-1.5,1.367-2.811,1.367c-1.862,0-2.812-1.311-2.812-2.641
		c0-2.223,1.977-3.438,5.528-3.419v-0.19c0-0.76-0.209-2.128-2.089-2.128c-0.855,0-1.748,0.267-2.395,0.685l-0.38-1.103
		c0.761-0.493,1.862-0.816,3.021-0.816c2.812,0,3.496,1.919,3.496,3.762v3.438c0,0.798,0.037,1.576,0.152,2.203H677.62z
		 M677.373,134.413c-1.824-0.038-3.895,0.285-3.895,2.071c0,1.083,0.723,1.596,1.577,1.596c1.196,0,1.956-0.76,2.223-1.539
		c0.057-0.171,0.095-0.361,0.095-0.532V134.413z"/>
	<path class="st1" d="M682.637,132.399c0-0.949-0.02-1.729-0.076-2.488h1.481l0.095,1.52h0.039c0.455-0.874,1.52-1.729,3.039-1.729
		c1.272,0,3.248,0.76,3.248,3.913v5.49h-1.672v-5.3c0-1.482-0.551-2.717-2.127-2.717c-1.102,0-1.957,0.779-2.242,1.71
		c-0.076,0.209-0.113,0.494-0.113,0.778v5.528h-1.672V132.399z"/>
	<path class="st1" d="M702.073,125.618v11.113c0,0.816,0.02,1.747,0.076,2.374h-1.501l-0.076-1.596h-0.038
		c-0.513,1.026-1.633,1.805-3.135,1.805c-2.223,0-3.932-1.881-3.932-4.673c-0.02-3.059,1.881-4.939,4.122-4.939
		c1.405,0,2.355,0.665,2.773,1.405h0.038v-5.489H702.073z M700.401,133.653c0-0.209-0.02-0.494-0.076-0.703
		c-0.246-1.063-1.158-1.938-2.412-1.938c-1.729,0-2.755,1.52-2.755,3.553c0,1.861,0.912,3.4,2.717,3.4
		c1.12,0,2.146-0.741,2.45-1.995c0.057-0.228,0.076-0.455,0.076-0.722V133.653z"/>
	<path class="st1" d="M718.716,125.618v11.113c0,0.816,0.019,1.747,0.076,2.374h-1.501l-0.076-1.596h-0.037
		c-0.514,1.026-1.635,1.805-3.135,1.805c-2.223,0-3.934-1.881-3.934-4.673c-0.018-3.059,1.881-4.939,4.123-4.939
		c1.406,0,2.355,0.665,2.773,1.405h0.038v-5.489H718.716z M717.044,133.653c0-0.209-0.019-0.494-0.075-0.703
		c-0.248-1.063-1.16-1.938-2.413-1.938c-1.729,0-2.755,1.52-2.755,3.553c0,1.861,0.912,3.4,2.717,3.4
		c1.121,0,2.146-0.741,2.451-1.995c0.057-0.228,0.075-0.455,0.075-0.722V133.653z"/>
	<path class="st1" d="M730.762,134.433c0,3.4-2.355,4.882-4.578,4.882c-2.488,0-4.408-1.823-4.408-4.73
		c0-3.077,2.015-4.882,4.561-4.882C728.977,129.702,730.762,131.621,730.762,134.433z M723.467,134.527
		c0,2.014,1.158,3.533,2.793,3.533c1.596,0,2.793-1.5,2.793-3.571c0-1.558-0.779-3.533-2.756-3.533
		C724.323,130.956,723.467,132.779,723.467,134.527z"/>
	<path class="st1" d="M738.8,132.399c0-0.949-0.019-1.729-0.075-2.488h1.48l0.096,1.52h0.038c0.456-0.874,1.52-1.729,3.04-1.729
		c1.271,0,3.248,0.76,3.248,3.913v5.49h-1.672v-5.3c0-1.482-0.551-2.717-2.128-2.717c-1.102,0-1.956,0.779-2.241,1.71
		c-0.076,0.209-0.114,0.494-0.114,0.778v5.528H738.8V132.399z"/>
	<path class="st1" d="M758.616,134.433c0,3.4-2.355,4.882-4.578,4.882c-2.488,0-4.408-1.823-4.408-4.73
		c0-3.077,2.015-4.882,4.561-4.882C756.83,129.702,758.616,131.621,758.616,134.433z M751.321,134.527
		c0,2.014,1.158,3.533,2.793,3.533c1.596,0,2.793-1.5,2.793-3.571c0-1.558-0.779-3.533-2.756-3.533
		C752.176,130.956,751.321,132.779,751.321,134.527z"/>
	<path class="st1" d="M763.69,127.271v2.641h2.394v1.272h-2.394v4.959c0,1.14,0.323,1.785,1.254,1.785
		c0.438,0,0.76-0.057,0.969-0.114l0.076,1.254c-0.323,0.134-0.836,0.229-1.482,0.229c-0.778,0-1.405-0.247-1.805-0.703
		c-0.475-0.494-0.646-1.311-0.646-2.394v-5.016h-1.425v-1.272h1.425v-2.204L763.69,127.271z"/>
	<path class="st1" d="M562.139,155.911c-0.038,0.665-0.076,1.405-0.076,2.526v5.339c0,2.108-0.418,3.4-1.311,4.198
		c-0.893,0.836-2.185,1.102-3.344,1.102c-1.102,0-2.317-0.266-3.059-0.76l0.418-1.273c0.607,0.381,1.559,0.723,2.697,0.723
		c1.711,0,2.964-0.894,2.964-3.211v-1.025h-0.038c-0.513,0.854-1.5,1.538-2.926,1.538c-2.279,0-3.913-1.938-3.913-4.483
		c0-3.115,2.032-4.882,4.142-4.882c1.596,0,2.47,0.836,2.869,1.596h0.037l0.076-1.387H562.139z M560.41,159.539
		c0-0.284-0.02-0.531-0.096-0.76c-0.303-0.969-1.12-1.767-2.336-1.767c-1.596,0-2.736,1.349-2.736,3.477
		c0,1.805,0.912,3.306,2.717,3.306c1.026,0,1.957-0.646,2.318-1.71c0.095-0.285,0.133-0.607,0.133-0.893V159.539z"/>
	<path class="st1" d="M566.719,160.812c0.037,2.261,1.481,3.191,3.153,3.191c1.196,0,1.919-0.209,2.546-0.475l0.285,1.196
		c-0.59,0.267-1.596,0.57-3.059,0.57c-2.831,0-4.521-1.862-4.521-4.636s1.633-4.958,4.312-4.958c3.001,0,3.799,2.641,3.799,4.331
		c0,0.342-0.037,0.608-0.057,0.779H566.719z M571.619,159.615c0.02-1.063-0.436-2.716-2.316-2.716c-1.691,0-2.432,1.558-2.565,2.716
		H571.619z"/>
	<path class="st1" d="M578.27,153.271v2.641h2.395v1.272h-2.395v4.959c0,1.14,0.324,1.785,1.254,1.785
		c0.438,0,0.76-0.057,0.969-0.114l0.076,1.254c-0.322,0.134-0.836,0.229-1.481,0.229c-0.778,0-1.405-0.247-1.805-0.703
		c-0.476-0.494-0.646-1.311-0.646-2.394v-5.016h-1.426v-1.272h1.426v-2.204L578.27,153.271z"/>
	<path class="st1" d="M588.398,165.105c0.038-0.627,0.075-1.558,0.075-2.374v-11.113h1.653v5.774h0.038
		c0.589-1.025,1.652-1.69,3.135-1.69c2.279,0,3.895,1.899,3.875,4.692c0,3.286-2.07,4.92-4.122,4.92
		c-1.33,0-2.394-0.513-3.077-1.729h-0.058l-0.076,1.52H588.398z M590.126,161.42c0,0.209,0.038,0.418,0.076,0.608
		c0.323,1.158,1.292,1.957,2.507,1.957c1.748,0,2.793-1.425,2.793-3.534c0-1.843-0.949-3.419-2.735-3.419
		c-1.14,0-2.204,0.778-2.546,2.052c-0.037,0.189-0.095,0.418-0.095,0.684V161.42z"/>
	<path class="st1" d="M601.165,160.812c0.038,2.261,1.481,3.191,3.153,3.191c1.197,0,1.919-0.209,2.545-0.475l0.285,1.196
		c-0.588,0.267-1.596,0.57-3.059,0.57c-2.83,0-4.521-1.862-4.521-4.636s1.635-4.958,4.312-4.958c3.002,0,3.8,2.641,3.8,4.331
		c0,0.342-0.038,0.608-0.057,0.779H601.165z M606.067,159.615c0.019-1.063-0.438-2.716-2.318-2.716c-1.69,0-2.432,1.558-2.564,2.716
		H606.067z"/>
	<path class="st1" d="M610.703,151.618h1.672v5.736h0.038c0.266-0.475,0.684-0.893,1.196-1.178c0.494-0.285,1.083-0.475,1.71-0.475
		c1.235,0,3.211,0.76,3.211,3.933v5.471h-1.672v-5.281c0-1.481-0.551-2.735-2.128-2.735c-1.082,0-1.938,0.76-2.242,1.672
		c-0.094,0.228-0.113,0.475-0.113,0.798v5.547h-1.672V151.618z"/>
	<path class="st1" d="M624.06,153.327c0.019,0.57-0.399,1.026-1.063,1.026c-0.59,0-1.008-0.456-1.008-1.026
		c0-0.589,0.438-1.045,1.045-1.045C623.66,152.282,624.06,152.738,624.06,153.327z M622.198,165.105v-9.194h1.672v9.194H622.198z"/>
	<path class="st1" d="M627.594,158.399c0-0.949-0.02-1.729-0.076-2.488H629l0.095,1.52h0.038c0.455-0.874,1.52-1.729,3.039-1.729
		c1.273,0,3.249,0.76,3.249,3.913v5.49h-1.672v-5.3c0-1.482-0.551-2.717-2.128-2.717c-1.102,0-1.957,0.779-2.242,1.71
		c-0.075,0.209-0.113,0.494-0.113,0.778v5.528h-1.672V158.399z"/>
	<path class="st1" d="M647.03,151.618v11.113c0,0.816,0.02,1.747,0.076,2.374h-1.501l-0.076-1.596h-0.038
		c-0.513,1.026-1.633,1.805-3.135,1.805c-2.223,0-3.932-1.881-3.932-4.673c-0.02-3.059,1.881-4.939,4.122-4.939
		c1.405,0,2.355,0.665,2.773,1.405h0.038v-5.489H647.03z M645.358,159.653c0-0.209-0.02-0.494-0.076-0.703
		c-0.246-1.063-1.158-1.938-2.412-1.938c-1.729,0-2.755,1.52-2.755,3.553c0,1.861,0.912,3.4,2.717,3.4
		c1.12,0,2.146-0.741,2.45-1.995c0.057-0.228,0.076-0.455,0.076-0.722V159.653z"/>
	<path class="st1" d="M650.166,164.118c0-0.703,0.475-1.197,1.14-1.197s1.12,0.494,1.12,1.197c0,0.684-0.437,1.196-1.139,1.196
		C650.621,165.314,650.166,164.802,650.166,164.118z"/>
</g>
<g>
	<rect y="65.616" class="st0" width="343.931" height="139.903"/>
	<path class="st1" d="M128.361,67.707h-3.895v-1.405h9.479v1.405h-3.913v11.398h-1.672V67.707z"/>
	<path class="st1" d="M142.952,73.103h-4.977v4.616h5.547v1.387h-7.2V66.302h6.915v1.387h-5.262v4.046h4.977V73.103z"/>
	<path class="st1" d="M153.25,73.103h-4.977v4.616h5.547v1.387h-7.2V66.302h6.915v1.387h-5.262v4.046h4.977V73.103z"/>
	<path class="st1" d="M156.918,79.105V66.302h1.805l4.104,6.478c0.95,1.501,1.69,2.85,2.298,4.161l0.038-0.02
		c-0.152-1.71-0.19-3.268-0.19-5.262v-5.357h1.558v12.804h-1.671l-4.065-6.497c-0.893-1.425-1.748-2.888-2.394-4.274l-0.057,0.02
		c0.095,1.614,0.133,3.153,0.133,5.281v5.471H156.918z"/>
	<path class="st1" d="M186.138,73.482c-0.095-1.785-0.209-3.933-0.19-5.528h-0.057c-0.437,1.501-0.969,3.097-1.615,4.863
		l-2.261,6.212h-1.254l-2.071-6.098c-0.608-1.805-1.121-3.457-1.481-4.978h-0.038c-0.038,1.596-0.133,3.743-0.247,5.661l-0.342,5.49
		h-1.577l0.893-12.804h2.109l2.185,6.193c0.532,1.576,0.969,2.982,1.292,4.312h0.057c0.323-1.291,0.779-2.697,1.349-4.312
		l2.279-6.193h2.109l0.798,12.804h-1.615L186.138,73.482z"/>
	<path class="st1" d="M202.516,72.57c0,4.408-2.679,6.744-5.946,6.744c-3.381,0-5.756-2.621-5.756-6.497
		c0-4.065,2.526-6.725,5.946-6.725C200.255,66.093,202.516,68.771,202.516,72.57z M192.58,72.779c0,2.736,1.482,5.187,4.084,5.187
		c2.622,0,4.104-2.412,4.104-5.319c0-2.546-1.33-5.205-4.084-5.205C193.948,67.441,192.58,69.968,192.58,72.779z"/>
	<path class="st1" d="M216.405,73.482c-0.095-1.785-0.209-3.933-0.19-5.528h-0.057c-0.437,1.501-0.969,3.097-1.615,4.863
		l-2.261,6.212h-1.254l-2.071-6.098c-0.608-1.805-1.121-3.457-1.481-4.978h-0.038c-0.038,1.596-0.133,3.743-0.247,5.661l-0.342,5.49
		h-1.577l0.893-12.804h2.109l2.185,6.193c0.532,1.576,0.969,2.982,1.292,4.312h0.057c0.323-1.291,0.779-2.697,1.349-4.312
		l2.279-6.193h2.109l0.798,12.804h-1.615L216.405,73.482z"/>
	<path class="st1" d="M21.83,100.302v5.357h6.193v-5.357h1.672v12.804h-1.672v-6.003H21.83v6.003h-1.653v-12.804H21.83z"/>
	<path class="st1" d="M38.549,113.105l-0.133-1.158h-0.057c-0.513,0.722-1.501,1.367-2.812,1.367c-1.862,0-2.812-1.311-2.812-2.641
		c0-2.223,1.976-3.438,5.528-3.419v-0.19c0-0.76-0.209-2.128-2.089-2.128c-0.855,0-1.748,0.267-2.394,0.685l-0.38-1.103
		c0.76-0.493,1.862-0.816,3.021-0.816c2.812,0,3.495,1.919,3.495,3.762v3.438c0,0.798,0.038,1.576,0.152,2.203H38.549z
		 M38.302,108.413c-1.824-0.038-3.895,0.285-3.895,2.071c0,1.083,0.722,1.596,1.577,1.596c1.197,0,1.957-0.76,2.223-1.539
		c0.057-0.171,0.095-0.361,0.095-0.532V108.413z"/>
	<path class="st1" d="M44.059,103.911l1.805,5.167c0.304,0.836,0.551,1.596,0.741,2.355h0.057c0.209-0.76,0.475-1.52,0.779-2.355
		l1.786-5.167h1.748l-3.609,9.194h-1.596l-3.496-9.194H44.059z"/>
	<path class="st1" d="M55.364,101.327c0.019,0.57-0.399,1.026-1.064,1.026c-0.589,0-1.007-0.456-1.007-1.026
		c0-0.589,0.437-1.045,1.045-1.045C54.965,100.282,55.364,100.738,55.364,101.327z M53.502,113.105v-9.194h1.672v9.194H53.502z"/>
	<path class="st1" d="M58.898,106.399c0-0.949-0.019-1.729-0.076-2.488h1.481l0.095,1.52h0.038c0.456-0.874,1.52-1.729,3.04-1.729
		c1.272,0,3.249,0.76,3.249,3.913v5.49h-1.672v-5.3c0-1.482-0.551-2.717-2.128-2.717c-1.102,0-1.957,0.779-2.242,1.71
		c-0.076,0.209-0.114,0.494-0.114,0.778v5.528h-1.672V106.399z"/>
	<path class="st1" d="M78.315,103.911c-0.038,0.665-0.076,1.405-0.076,2.526v5.339c0,2.108-0.417,3.4-1.311,4.198
		c-0.893,0.836-2.185,1.102-3.344,1.102c-1.102,0-2.317-0.266-3.058-0.76l0.417-1.273c0.608,0.381,1.558,0.723,2.698,0.723
		c1.71,0,2.964-0.894,2.964-3.211v-1.025h-0.038c-0.513,0.854-1.501,1.538-2.926,1.538c-2.28,0-3.914-1.938-3.914-4.483
		c0-3.115,2.033-4.882,4.142-4.882c1.596,0,2.47,0.836,2.869,1.596h0.038l0.076-1.387H78.315z M76.586,107.539
		c0-0.284-0.019-0.531-0.095-0.76c-0.304-0.969-1.121-1.767-2.336-1.767c-1.596,0-2.736,1.349-2.736,3.477
		c0,1.805,0.912,3.306,2.717,3.306c1.026,0,1.957-0.646,2.317-1.71c0.095-0.285,0.133-0.607,0.133-0.893V107.539z"/>
	<path class="st1" d="M92.033,113.105l-0.133-1.158h-0.057c-0.513,0.722-1.501,1.367-2.812,1.367c-1.862,0-2.812-1.311-2.812-2.641
		c0-2.223,1.976-3.438,5.528-3.419v-0.19c0-0.76-0.209-2.128-2.089-2.128c-0.855,0-1.748,0.267-2.394,0.685l-0.38-1.103
		c0.76-0.493,1.862-0.816,3.021-0.816c2.812,0,3.495,1.919,3.495,3.762v3.438c0,0.798,0.038,1.576,0.152,2.203H92.033z
		 M91.785,108.413c-1.824-0.038-3.895,0.285-3.895,2.071c0,1.083,0.722,1.596,1.577,1.596c1.197,0,1.957-0.76,2.223-1.539
		c0.057-0.171,0.095-0.361,0.095-0.532V108.413z"/>
	<path class="st1" d="M103.68,108.129h0.038c0.228-0.323,0.551-0.723,0.817-1.045l2.697-3.173h2.014l-3.553,3.78l4.046,5.414h-2.033
		l-3.172-4.407l-0.855,0.95v3.457h-1.653V99.618h1.653V108.129z"/>
	<path class="st1" d="M114.073,101.327c0.019,0.57-0.399,1.026-1.064,1.026c-0.589,0-1.007-0.456-1.007-1.026
		c0-0.589,0.437-1.045,1.045-1.045C113.674,100.282,114.073,100.738,114.073,101.327z M112.211,113.105v-9.194h1.672v9.194H112.211z
		"/>
	<path class="st1" d="M125.548,99.618v11.113c0,0.816,0.019,1.747,0.076,2.374h-1.501l-0.076-1.596h-0.038
		c-0.513,1.026-1.634,1.805-3.135,1.805c-2.223,0-3.933-1.881-3.933-4.673c-0.019-3.059,1.881-4.939,4.123-4.939
		c1.406,0,2.355,0.665,2.773,1.405h0.038v-5.489H125.548z M123.876,107.653c0-0.209-0.019-0.494-0.076-0.703
		c-0.247-1.063-1.159-1.938-2.413-1.938c-1.729,0-2.755,1.52-2.755,3.553c0,1.861,0.912,3.4,2.717,3.4
		c1.121,0,2.146-0.741,2.451-1.995c0.057-0.228,0.076-0.455,0.076-0.722V107.653z"/>
	<path class="st1" d="M139.342,113.105l-0.133-1.158h-0.057c-0.513,0.722-1.501,1.367-2.812,1.367c-1.862,0-2.812-1.311-2.812-2.641
		c0-2.223,1.976-3.438,5.528-3.419v-0.19c0-0.76-0.209-2.128-2.089-2.128c-0.855,0-1.748,0.267-2.394,0.685l-0.38-1.103
		c0.76-0.493,1.862-0.816,3.021-0.816c2.812,0,3.495,1.919,3.495,3.762v3.438c0,0.798,0.038,1.576,0.152,2.203H139.342z
		 M139.095,108.413c-1.824-0.038-3.895,0.285-3.895,2.071c0,1.083,0.722,1.596,1.577,1.596c1.197,0,1.957-0.76,2.223-1.539
		c0.057-0.171,0.095-0.361,0.095-0.532V108.413z"/>
	<path class="st1" d="M146.296,101.271v2.641h2.394v1.272h-2.394v4.959c0,1.14,0.323,1.785,1.254,1.785
		c0.437,0,0.76-0.057,0.969-0.114l0.076,1.254c-0.323,0.134-0.836,0.229-1.482,0.229c-0.779,0-1.406-0.247-1.805-0.703
		c-0.475-0.494-0.646-1.311-0.646-2.394v-5.016h-1.425v-1.272h1.425v-2.204L146.296,101.271z"/>
	<path class="st1" d="M161.591,113.105l-0.133-1.158h-0.057c-0.513,0.722-1.501,1.367-2.812,1.367c-1.862,0-2.812-1.311-2.812-2.641
		c0-2.223,1.976-3.438,5.528-3.419v-0.19c0-0.76-0.209-2.128-2.089-2.128c-0.855,0-1.748,0.267-2.394,0.685l-0.38-1.103
		c0.76-0.493,1.862-0.816,3.021-0.816c2.812,0,3.495,1.919,3.495,3.762v3.438c0,0.798,0.038,1.576,0.152,2.203H161.591z
		 M161.344,108.413c-1.824-0.038-3.895,0.285-3.895,2.071c0,1.083,0.722,1.596,1.577,1.596c1.197,0,1.957-0.76,2.223-1.539
		c0.057-0.171,0.095-0.361,0.095-0.532V108.413z"/>
	<path class="st1" d="M172.193,103.911l2.014,5.434c0.209,0.607,0.437,1.329,0.589,1.88h0.038c0.171-0.551,0.361-1.254,0.589-1.918
		l1.824-5.396h1.767l-2.507,6.554c-1.197,3.153-2.014,4.769-3.154,5.757c-0.817,0.722-1.634,1.007-2.051,1.082l-0.418-1.405
		c0.418-0.133,0.969-0.399,1.462-0.817c0.456-0.36,1.026-1.007,1.406-1.861c0.076-0.171,0.133-0.304,0.133-0.399
		c0-0.095-0.038-0.228-0.114-0.437l-3.4-8.473H172.193z"/>
	<path class="st1" d="M189.614,108.433c0,3.4-2.355,4.882-4.578,4.882c-2.489,0-4.408-1.823-4.408-4.73
		c0-3.077,2.014-4.882,4.56-4.882C187.828,103.702,189.614,105.621,189.614,108.433z M182.319,108.527
		c0,2.014,1.159,3.533,2.792,3.533c1.596,0,2.793-1.5,2.793-3.571c0-1.558-0.779-3.533-2.755-3.533S182.319,106.779,182.319,108.527
		z"/>
	<path class="st1" d="M200.368,110.598c0,0.95,0.019,1.786,0.076,2.508h-1.482l-0.095-1.501h-0.038
		c-0.437,0.741-1.406,1.71-3.04,1.71c-1.444,0-3.173-0.798-3.173-4.027v-5.376h1.672v5.091c0,1.748,0.532,2.926,2.052,2.926
		c1.121,0,1.9-0.778,2.204-1.52c0.095-0.247,0.152-0.551,0.152-0.854v-5.643h1.672V110.598z"/>
	<path class="st1" d="M204.094,106.399c0-0.949-0.019-1.729-0.076-2.488h1.481l0.095,1.52h0.038c0.456-0.874,1.52-1.729,3.04-1.729
		c1.272,0,3.249,0.76,3.249,3.913v5.49h-1.672v-5.3c0-1.482-0.551-2.717-2.128-2.717c-1.102,0-1.957,0.779-2.242,1.71
		c-0.076,0.209-0.114,0.494-0.114,0.778v5.528h-1.672V106.399z"/>
	<path class="st1" d="M223.51,103.911c-0.038,0.665-0.076,1.405-0.076,2.526v5.339c0,2.108-0.417,3.4-1.311,4.198
		c-0.893,0.836-2.185,1.102-3.344,1.102c-1.102,0-2.317-0.266-3.058-0.76l0.417-1.273c0.608,0.381,1.558,0.723,2.698,0.723
		c1.71,0,2.964-0.894,2.964-3.211v-1.025h-0.038c-0.513,0.854-1.501,1.538-2.926,1.538c-2.28,0-3.914-1.938-3.914-4.483
		c0-3.115,2.033-4.882,4.142-4.882c1.596,0,2.47,0.836,2.869,1.596h0.038l0.076-1.387H223.51z M221.782,107.539
		c0-0.284-0.019-0.531-0.095-0.76c-0.304-0.969-1.121-1.767-2.336-1.767c-1.596,0-2.736,1.349-2.736,3.477
		c0,1.805,0.912,3.306,2.717,3.306c1.026,0,1.957-0.646,2.317-1.71c0.095-0.285,0.133-0.607,0.133-0.893V107.539z"/>
	<path class="st1" d="M237.228,113.105l-0.133-1.158h-0.057c-0.513,0.722-1.501,1.367-2.812,1.367c-1.862,0-2.812-1.311-2.812-2.641
		c0-2.223,1.976-3.438,5.528-3.419v-0.19c0-0.76-0.209-2.128-2.089-2.128c-0.855,0-1.748,0.267-2.394,0.685l-0.38-1.103
		c0.76-0.493,1.862-0.816,3.021-0.816c2.812,0,3.495,1.919,3.495,3.762v3.438c0,0.798,0.038,1.576,0.152,2.203H237.228z
		 M236.981,108.413c-1.824-0.038-3.895,0.285-3.895,2.071c0,1.083,0.722,1.596,1.577,1.596c1.197,0,1.957-0.76,2.223-1.539
		c0.057-0.171,0.095-0.361,0.095-0.532V108.413z"/>
	<path class="st1" d="M250.166,103.911c-0.038,0.665-0.076,1.405-0.076,2.526v5.339c0,2.108-0.417,3.4-1.311,4.198
		c-0.893,0.836-2.185,1.102-3.344,1.102c-1.102,0-2.317-0.266-3.058-0.76l0.417-1.273c0.608,0.381,1.558,0.723,2.698,0.723
		c1.71,0,2.964-0.894,2.964-3.211v-1.025h-0.038c-0.513,0.854-1.501,1.538-2.926,1.538c-2.28,0-3.914-1.938-3.914-4.483
		c0-3.115,2.033-4.882,4.142-4.882c1.596,0,2.47,0.836,2.869,1.596h0.038l0.076-1.387H250.166z M248.438,107.539
		c0-0.284-0.019-0.531-0.095-0.76c-0.304-0.969-1.121-1.767-2.336-1.767c-1.596,0-2.736,1.349-2.736,3.477
		c0,1.805,0.912,3.306,2.717,3.306c1.026,0,1.957-0.646,2.317-1.71c0.095-0.285,0.133-0.607,0.133-0.893V107.539z"/>
	<path class="st1" d="M254.746,108.812c0.038,2.261,1.481,3.191,3.153,3.191c1.197,0,1.919-0.209,2.545-0.475l0.285,1.196
		c-0.589,0.267-1.596,0.57-3.059,0.57c-2.831,0-4.521-1.862-4.521-4.636s1.634-4.958,4.312-4.958c3.001,0,3.799,2.641,3.799,4.331
		c0,0.342-0.038,0.608-0.057,0.779H254.746z M259.647,107.615c0.019-1.063-0.437-2.716-2.317-2.716
		c-1.691,0-2.432,1.558-2.565,2.716H259.647z"/>
	<path class="st1" d="M275.816,112.764c-0.437,0.229-1.406,0.532-2.641,0.532c-2.773,0-4.579-1.881-4.579-4.692
		c0-2.831,1.938-4.883,4.939-4.883c0.988,0,1.862,0.247,2.318,0.476l-0.38,1.292c-0.399-0.229-1.026-0.438-1.938-0.438
		c-2.109,0-3.249,1.558-3.249,3.477c0,2.128,1.368,3.438,3.191,3.438c0.95,0,1.577-0.247,2.052-0.456L275.816,112.764z"/>
	<path class="st1" d="M283.815,113.105l-0.133-1.158h-0.057c-0.513,0.722-1.501,1.367-2.812,1.367c-1.862,0-2.812-1.311-2.812-2.641
		c0-2.223,1.976-3.438,5.528-3.419v-0.19c0-0.76-0.209-2.128-2.089-2.128c-0.855,0-1.748,0.267-2.394,0.685l-0.38-1.103
		c0.76-0.493,1.862-0.816,3.021-0.816c2.812,0,3.495,1.919,3.495,3.762v3.438c0,0.798,0.038,1.576,0.152,2.203H283.815z
		 M283.568,108.413c-1.824-0.038-3.895,0.285-3.895,2.071c0,1.083,0.722,1.596,1.577,1.596c1.197,0,1.957-0.76,2.223-1.539
		c0.057-0.171,0.095-0.361,0.095-0.532V108.413z"/>
	<path class="st1" d="M288.831,106.399c0-0.949-0.019-1.729-0.076-2.488h1.481l0.095,1.52h0.038c0.456-0.874,1.52-1.729,3.04-1.729
		c1.272,0,3.249,0.76,3.249,3.913v5.49h-1.672v-5.3c0-1.482-0.551-2.717-2.128-2.717c-1.102,0-1.957,0.779-2.242,1.71
		c-0.076,0.209-0.114,0.494-0.114,0.778v5.528h-1.672V106.399z"/>
	<path class="st1" d="M305.228,113.105c0.038-0.627,0.076-1.558,0.076-2.374V99.618h1.653v5.774h0.038
		c0.589-1.025,1.653-1.69,3.134-1.69c2.28,0,3.895,1.899,3.875,4.692c0,3.286-2.071,4.92-4.122,4.92
		c-1.33,0-2.394-0.513-3.078-1.729h-0.057l-0.076,1.52H305.228z M306.957,109.42c0,0.209,0.038,0.418,0.076,0.608
		c0.323,1.158,1.292,1.957,2.507,1.957c1.748,0,2.792-1.425,2.792-3.534c0-1.843-0.95-3.419-2.735-3.419
		c-1.14,0-2.204,0.778-2.545,2.052c-0.038,0.189-0.095,0.418-0.095,0.684V109.42z"/>
	<path class="st1" d="M317.996,108.812c0.038,2.261,1.481,3.191,3.153,3.191c1.197,0,1.919-0.209,2.545-0.475l0.285,1.196
		c-0.589,0.267-1.596,0.57-3.059,0.57c-2.831,0-4.521-1.862-4.521-4.636s1.634-4.958,4.312-4.958c3.001,0,3.799,2.641,3.799,4.331
		c0,0.342-0.038,0.608-0.057,0.779H317.996z M322.897,107.615c0.019-1.063-0.437-2.716-2.317-2.716
		c-1.691,0-2.432,1.558-2.565,2.716H322.897z"/>
	<path class="st1" d="M40.392,125.618h1.672v5.736h0.038c0.266-0.475,0.684-0.893,1.197-1.178c0.494-0.285,1.083-0.475,1.709-0.475
		c1.235,0,3.211,0.76,3.211,3.933v5.471h-1.672v-5.281c0-1.481-0.551-2.735-2.128-2.735c-1.083,0-1.938,0.76-2.242,1.672
		c-0.095,0.228-0.114,0.475-0.114,0.798v5.547h-1.672V125.618z"/>
	<path class="st1" d="M56.979,139.105l-0.133-1.158h-0.057c-0.513,0.722-1.501,1.367-2.812,1.367c-1.862,0-2.812-1.311-2.812-2.641
		c0-2.223,1.976-3.438,5.528-3.419v-0.19c0-0.76-0.209-2.128-2.089-2.128c-0.855,0-1.748,0.267-2.394,0.685l-0.38-1.103
		c0.76-0.493,1.862-0.816,3.021-0.816c2.812,0,3.495,1.919,3.495,3.762v3.438c0,0.798,0.038,1.576,0.152,2.203H56.979z
		 M56.732,134.413c-1.824-0.038-3.895,0.285-3.895,2.071c0,1.083,0.722,1.596,1.577,1.596c1.197,0,1.957-0.76,2.223-1.539
		c0.057-0.171,0.095-0.361,0.095-0.532V134.413z"/>
	<path class="st1" d="M61.995,132.779c0-1.082-0.019-2.014-0.076-2.868h1.462l0.057,1.805h0.076
		c0.418-1.234,1.425-2.014,2.545-2.014c0.19,0,0.323,0.019,0.475,0.057v1.577c-0.171-0.038-0.342-0.057-0.57-0.057
		c-1.178,0-2.014,0.893-2.242,2.146c-0.038,0.228-0.076,0.494-0.076,0.778v4.901h-1.653V132.779z"/>
	<path class="st1" d="M76.909,125.618v11.113c0,0.816,0.019,1.747,0.076,2.374h-1.501l-0.076-1.596H75.37
		c-0.513,1.026-1.634,1.805-3.135,1.805c-2.223,0-3.933-1.881-3.933-4.673c-0.019-3.059,1.881-4.939,4.123-4.939
		c1.406,0,2.355,0.665,2.773,1.405h0.038v-5.489H76.909z M75.237,133.653c0-0.209-0.019-0.494-0.076-0.703
		c-0.247-1.063-1.159-1.938-2.413-1.938c-1.729,0-2.755,1.52-2.755,3.553c0,1.861,0.912,3.4,2.717,3.4
		c1.121,0,2.146-0.741,2.451-1.995c0.057-0.228,0.076-0.455,0.076-0.722V133.653z"/>
	<path class="st1" d="M80.045,138.118c0-0.703,0.475-1.197,1.14-1.197c0.665,0,1.121,0.494,1.121,1.197
		c0,0.684-0.437,1.196-1.14,1.196C80.501,139.314,80.045,138.802,80.045,138.118z"/>
	<path class="st1" d="M90.362,126.302h1.653v11.417h5.471v1.387h-7.124V126.302z"/>
	<path class="st1" d="M100.888,134.812c0.038,2.261,1.481,3.191,3.153,3.191c1.197,0,1.919-0.209,2.545-0.475l0.285,1.196
		c-0.589,0.267-1.596,0.57-3.059,0.57c-2.831,0-4.521-1.862-4.521-4.636s1.634-4.958,4.312-4.958c3.001,0,3.799,2.641,3.799,4.331
		c0,0.342-0.038,0.608-0.057,0.779H100.888z M105.788,133.615c0.019-1.063-0.437-2.716-2.317-2.716
		c-1.691,0-2.432,1.558-2.565,2.716H105.788z"/>
	<path class="st1" d="M112.439,127.271v2.641h2.394v1.272h-2.394v4.959c0,1.14,0.323,1.785,1.254,1.785
		c0.437,0,0.76-0.057,0.969-0.114l0.076,1.254c-0.323,0.134-0.836,0.229-1.482,0.229c-0.779,0-1.406-0.247-1.805-0.703
		c-0.475-0.494-0.646-1.311-0.646-2.394v-5.016h-1.425v-1.272h1.425v-2.204L112.439,127.271z"/>
	<path class="st1" d="M130.336,136.598c0,0.95,0.019,1.786,0.076,2.508h-1.482l-0.095-1.501h-0.038
		c-0.437,0.741-1.406,1.71-3.04,1.71c-1.444,0-3.173-0.798-3.173-4.027v-5.376h1.672v5.091c0,1.748,0.532,2.926,2.052,2.926
		c1.121,0,1.9-0.778,2.204-1.52c0.095-0.247,0.152-0.551,0.152-0.854v-5.643h1.672V136.598z"/>
	<path class="st1" d="M133.833,137.396c0.494,0.323,1.368,0.665,2.204,0.665c1.216,0,1.786-0.607,1.786-1.367
		c0-0.798-0.475-1.235-1.71-1.691c-1.653-0.589-2.432-1.5-2.432-2.603c0-1.481,1.197-2.697,3.172-2.697
		c0.931,0,1.748,0.266,2.261,0.57l-0.418,1.216c-0.361-0.229-1.026-0.532-1.88-0.532c-0.988,0-1.539,0.569-1.539,1.254
		c0,0.76,0.551,1.102,1.748,1.558c1.596,0.607,2.413,1.405,2.413,2.773c0,1.615-1.254,2.755-3.438,2.755
		c-1.007,0-1.938-0.247-2.584-0.627L133.833,137.396z"/>
	<path class="st1" d="M147.513,125.618h1.672v5.736h0.038c0.266-0.475,0.684-0.893,1.197-1.178c0.494-0.285,1.083-0.475,1.709-0.475
		c1.235,0,3.211,0.76,3.211,3.933v5.471h-1.672v-5.281c0-1.481-0.551-2.735-2.128-2.735c-1.083,0-1.938,0.76-2.242,1.672
		c-0.095,0.228-0.114,0.475-0.114,0.798v5.547h-1.672V125.618z"/>
	<path class="st1" d="M159.939,134.812c0.038,2.261,1.481,3.191,3.153,3.191c1.197,0,1.919-0.209,2.545-0.475l0.285,1.196
		c-0.589,0.267-1.596,0.57-3.059,0.57c-2.831,0-4.521-1.862-4.521-4.636s1.634-4.958,4.312-4.958c3.001,0,3.799,2.641,3.799,4.331
		c0,0.342-0.038,0.608-0.057,0.779H159.939z M164.84,133.615c0.019-1.063-0.437-2.716-2.317-2.716c-1.691,0-2.432,1.558-2.565,2.716
		H164.84z"/>
	<path class="st1" d="M169.477,125.618h1.672v13.487h-1.672V125.618z"/>
	<path class="st1" d="M174.911,132.913c0-1.179-0.038-2.128-0.076-3.002h1.5l0.076,1.577h0.038c0.684-1.121,1.767-1.786,3.267-1.786
		c2.223,0,3.895,1.881,3.895,4.673c0,3.306-2.014,4.939-4.179,4.939c-1.216,0-2.28-0.531-2.831-1.443h-0.038v4.996h-1.653V132.913z
		 M176.564,135.363c0,0.247,0.038,0.475,0.076,0.684c0.304,1.159,1.311,1.957,2.507,1.957c1.767,0,2.792-1.443,2.792-3.553
		c0-1.843-0.969-3.419-2.735-3.419c-1.14,0-2.204,0.816-2.527,2.07c-0.057,0.209-0.114,0.456-0.114,0.684V135.363z"/>
	<path class="st1" d="M192.257,129.911l2.014,5.434c0.209,0.607,0.437,1.329,0.589,1.88h0.038c0.171-0.551,0.361-1.254,0.589-1.918
		l1.824-5.396h1.767l-2.507,6.554c-1.197,3.153-2.014,4.769-3.154,5.757c-0.817,0.722-1.634,1.007-2.051,1.082l-0.418-1.405
		c0.418-0.133,0.969-0.399,1.462-0.817c0.456-0.36,1.026-1.007,1.406-1.861c0.076-0.171,0.133-0.304,0.133-0.399
		c0-0.095-0.038-0.228-0.114-0.437l-3.4-8.473H192.257z"/>
	<path class="st1" d="M209.679,134.433c0,3.4-2.355,4.882-4.578,4.882c-2.489,0-4.408-1.823-4.408-4.73
		c0-3.077,2.014-4.882,4.56-4.882C207.893,129.702,209.679,131.621,209.679,134.433z M202.384,134.527
		c0,2.014,1.159,3.533,2.792,3.533c1.596,0,2.793-1.5,2.793-3.571c0-1.558-0.779-3.533-2.755-3.533S202.384,132.779,202.384,134.527
		z"/>
	<path class="st1" d="M220.433,136.598c0,0.95,0.019,1.786,0.076,2.508h-1.482l-0.095-1.501h-0.038
		c-0.437,0.741-1.406,1.71-3.04,1.71c-1.444,0-3.173-0.798-3.173-4.027v-5.376h1.672v5.091c0,1.748,0.532,2.926,2.052,2.926
		c1.121,0,1.9-0.778,2.204-1.52c0.095-0.247,0.152-0.551,0.152-0.854v-5.643h1.672V136.598z"/>
	<path class="st1" d="M237.057,129.911c-0.038,0.665-0.076,1.405-0.076,2.526v5.339c0,2.108-0.418,3.4-1.311,4.198
		c-0.893,0.836-2.185,1.102-3.344,1.102c-1.102,0-2.317-0.266-3.059-0.76l0.418-1.273c0.608,0.381,1.558,0.723,2.698,0.723
		c1.71,0,2.963-0.894,2.963-3.211v-1.025h-0.038c-0.513,0.854-1.501,1.538-2.926,1.538c-2.28,0-3.914-1.938-3.914-4.483
		c0-3.115,2.033-4.882,4.142-4.882c1.596,0,2.47,0.836,2.869,1.596h0.038l0.076-1.387H237.057z M235.329,133.539
		c0-0.284-0.019-0.531-0.095-0.76c-0.304-0.969-1.121-1.767-2.336-1.767c-1.596,0-2.736,1.349-2.736,3.477
		c0,1.805,0.912,3.306,2.717,3.306c1.026,0,1.957-0.646,2.317-1.71c0.095-0.285,0.133-0.607,0.133-0.893V133.539z"/>
	<path class="st1" d="M241.638,134.812c0.038,2.261,1.481,3.191,3.153,3.191c1.197,0,1.919-0.209,2.545-0.475l0.285,1.196
		c-0.589,0.267-1.596,0.57-3.059,0.57c-2.831,0-4.521-1.862-4.521-4.636s1.634-4.958,4.312-4.958c3.001,0,3.799,2.641,3.799,4.331
		c0,0.342-0.038,0.608-0.057,0.779H241.638z M246.538,133.615c0.019-1.063-0.437-2.716-2.317-2.716
		c-1.691,0-2.432,1.558-2.565,2.716H246.538z"/>
	<path class="st1" d="M253.189,127.271v2.641h2.394v1.272h-2.394v4.959c0,1.14,0.323,1.785,1.254,1.785
		c0.437,0,0.76-0.057,0.969-0.114l0.076,1.254c-0.323,0.134-0.836,0.229-1.482,0.229c-0.779,0-1.406-0.247-1.805-0.703
		c-0.475-0.494-0.646-1.311-0.646-2.394v-5.016h-1.425v-1.272h1.425v-2.204L253.189,127.271z"/>
	<path class="st1" d="M268.484,139.105l-0.133-1.158h-0.057c-0.513,0.722-1.501,1.367-2.812,1.367c-1.862,0-2.812-1.311-2.812-2.641
		c0-2.223,1.976-3.438,5.528-3.419v-0.19c0-0.76-0.209-2.128-2.089-2.128c-0.855,0-1.748,0.267-2.394,0.685l-0.38-1.103
		c0.76-0.493,1.862-0.816,3.021-0.816c2.812,0,3.495,1.919,3.495,3.762v3.438c0,0.798,0.038,1.576,0.152,2.203H268.484z
		 M268.237,134.413c-1.824-0.038-3.895,0.285-3.895,2.071c0,1.083,0.722,1.596,1.577,1.596c1.197,0,1.957-0.76,2.223-1.539
		c0.057-0.171,0.095-0.361,0.095-0.532V134.413z"/>
	<path class="st1" d="M278.649,139.105v-7.922h-1.292v-1.272h1.292v-0.437c0-1.292,0.285-2.47,1.064-3.211
		c0.627-0.608,1.463-0.854,2.242-0.854c0.589,0,1.102,0.133,1.425,0.266l-0.228,1.292c-0.247-0.114-0.589-0.209-1.064-0.209
		c-1.425,0-1.786,1.254-1.786,2.659v0.494h2.223v1.272h-2.223v7.922H278.649z"/>
	<path class="st1" d="M292.669,136.598c0,0.95,0.019,1.786,0.076,2.508h-1.482l-0.095-1.501h-0.038
		c-0.437,0.741-1.406,1.71-3.04,1.71c-1.444,0-3.173-0.798-3.173-4.027v-5.376h1.672v5.091c0,1.748,0.532,2.926,2.052,2.926
		c1.121,0,1.9-0.778,2.204-1.52c0.095-0.247,0.152-0.551,0.152-0.854v-5.643h1.672V136.598z"/>
	<path class="st1" d="M296.394,125.618h1.672v13.487h-1.672V125.618z"/>
	<path class="st1" d="M301.828,125.618h1.672v13.487h-1.672V125.618z"/>
	<path class="st1" d="M128.038,160.812c0.038,2.261,1.481,3.191,3.153,3.191c1.197,0,1.919-0.209,2.545-0.475l0.285,1.196
		c-0.589,0.267-1.596,0.57-3.059,0.57c-2.831,0-4.521-1.862-4.521-4.636s1.634-4.958,4.313-4.958c3.001,0,3.799,2.641,3.799,4.331
		c0,0.342-0.038,0.608-0.057,0.779H128.038z M132.939,159.615c0.019-1.063-0.437-2.716-2.317-2.716
		c-1.691,0-2.432,1.558-2.565,2.716H132.939z"/>
	<path class="st1" d="M145.517,151.618v11.113c0,0.816,0.019,1.747,0.076,2.374h-1.501l-0.076-1.596h-0.038
		c-0.513,1.026-1.634,1.805-3.135,1.805c-2.223,0-3.933-1.881-3.933-4.673c-0.019-3.059,1.881-4.939,4.123-4.939
		c1.406,0,2.355,0.665,2.773,1.405h0.038v-5.489H145.517z M143.845,159.653c0-0.209-0.019-0.494-0.076-0.703
		c-0.247-1.063-1.159-1.938-2.413-1.938c-1.729,0-2.754,1.52-2.754,3.553c0,1.861,0.912,3.4,2.717,3.4
		c1.121,0,2.146-0.741,2.451-1.995c0.057-0.228,0.076-0.455,0.076-0.722V159.653z"/>
	<path class="st1" d="M156.935,162.598c0,0.95,0.019,1.786,0.076,2.508h-1.482l-0.095-1.501h-0.038
		c-0.437,0.741-1.406,1.71-3.04,1.71c-1.444,0-3.173-0.798-3.173-4.027v-5.376h1.672v5.091c0,1.748,0.532,2.926,2.052,2.926
		c1.121,0,1.9-0.778,2.204-1.52c0.095-0.247,0.152-0.551,0.152-0.854v-5.643h1.672V162.598z"/>
	<path class="st1" d="M167.215,164.764c-0.437,0.229-1.406,0.532-2.641,0.532c-2.773,0-4.579-1.881-4.579-4.692
		c0-2.831,1.938-4.883,4.939-4.883c0.988,0,1.862,0.247,2.318,0.476l-0.38,1.292c-0.399-0.229-1.026-0.438-1.938-0.438
		c-2.109,0-3.249,1.558-3.249,3.477c0,2.128,1.368,3.438,3.191,3.438c0.95,0,1.577-0.247,2.052-0.456L167.215,164.764z"/>
	<path class="st1" d="M175.213,165.105l-0.133-1.158h-0.057c-0.513,0.722-1.501,1.367-2.812,1.367c-1.862,0-2.812-1.311-2.812-2.641
		c0-2.223,1.976-3.438,5.528-3.419v-0.19c0-0.76-0.209-2.128-2.089-2.128c-0.855,0-1.748,0.267-2.394,0.685l-0.38-1.103
		c0.76-0.493,1.862-0.816,3.021-0.816c2.812,0,3.495,1.919,3.495,3.762v3.438c0,0.798,0.038,1.576,0.152,2.203H175.213z
		 M174.966,160.413c-1.824-0.038-3.895,0.285-3.895,2.071c0,1.083,0.722,1.596,1.577,1.596c1.197,0,1.957-0.76,2.223-1.539
		c0.057-0.171,0.095-0.361,0.095-0.532V160.413z"/>
	<path class="st1" d="M182.167,153.271v2.641h2.394v1.272h-2.394v4.959c0,1.14,0.323,1.785,1.254,1.785
		c0.437,0,0.76-0.057,0.969-0.114l0.076,1.254c-0.323,0.134-0.836,0.229-1.482,0.229c-0.779,0-1.406-0.247-1.805-0.703
		c-0.475-0.494-0.646-1.311-0.646-2.394v-5.016h-1.425v-1.272h1.425v-2.204L182.167,153.271z"/>
	<path class="st1" d="M189.255,153.327c0.019,0.57-0.399,1.026-1.064,1.026c-0.589,0-1.007-0.456-1.007-1.026
		c0-0.589,0.437-1.045,1.045-1.045C188.856,152.282,189.255,152.738,189.255,153.327z M187.393,165.105v-9.194h1.672v9.194H187.393z
		"/>
	<path class="st1" d="M201.109,160.433c0,3.4-2.355,4.882-4.578,4.882c-2.489,0-4.408-1.823-4.408-4.73
		c0-3.077,2.014-4.882,4.56-4.882C199.324,155.702,201.109,157.621,201.109,160.433z M193.814,160.527
		c0,2.014,1.159,3.533,2.792,3.533c1.596,0,2.793-1.5,2.793-3.571c0-1.558-0.779-3.533-2.755-3.533S193.814,158.779,193.814,160.527
		z"/>
	<path class="st1" d="M204.17,158.399c0-0.949-0.019-1.729-0.076-2.488h1.481l0.095,1.52h0.038c0.456-0.874,1.52-1.729,3.04-1.729
		c1.272,0,3.249,0.76,3.249,3.913v5.49h-1.672v-5.3c0-1.482-0.551-2.717-2.128-2.717c-1.102,0-1.957,0.779-2.242,1.71
		c-0.076,0.209-0.114,0.494-0.114,0.778v5.528h-1.672V158.399z"/>
	<path class="st1" d="M215.265,164.118c0-0.703,0.475-1.197,1.14-1.197c0.665,0,1.121,0.494,1.121,1.197
		c0,0.684-0.437,1.196-1.14,1.196C215.722,165.314,215.265,164.802,215.265,164.118z"/>
</g>
<g id="_x5B_YOUR_HEADLINE_HERE_x5D__2_">
	<rect x="263.474" y="3.049" class="st0" width="246.667" height="29.501"/>
	<path class="st1" d="M334.445,17.544c0.936,0.576,2.304,1.056,3.744,1.056c2.136,0,3.384-1.128,3.384-2.76
		c0-1.513-0.864-2.376-3.048-3.217c-2.641-0.936-4.272-2.304-4.272-4.584c0-2.521,2.088-4.393,5.232-4.393
		c1.656,0,2.856,0.384,3.576,0.792l-0.576,1.704c-0.528-0.288-1.608-0.768-3.072-0.768c-2.208,0-3.048,1.32-3.048,2.424
		c0,1.513,0.984,2.257,3.216,3.12c2.736,1.057,4.128,2.377,4.128,4.753c0,2.496-1.848,4.656-5.665,4.656
		c-1.56,0-3.264-0.456-4.128-1.032L334.445,17.544z"/>
	<path class="st1" d="M356.861,12.504h-6.289v5.832h7.009v1.752h-9.097V3.911h8.737v1.752h-6.649v5.112h6.289V12.504z"/>
	<path class="st1" d="M362.229,4.127c1.056-0.216,2.568-0.336,4.008-0.336c2.232,0,3.672,0.408,4.68,1.319
		c0.816,0.721,1.272,1.824,1.272,3.072c0,2.137-1.344,3.553-3.048,4.129v0.072c1.248,0.432,1.992,1.584,2.376,3.264
		c0.528,2.257,0.912,3.816,1.248,4.44h-2.16c-0.264-0.456-0.624-1.848-1.08-3.864c-0.48-2.232-1.344-3.072-3.24-3.145h-1.968v7.009
		h-2.088V4.127z M364.317,11.495h2.136c2.232,0,3.648-1.224,3.648-3.072c0-2.088-1.512-3-3.72-3.024
		c-1.008,0-1.728,0.097-2.064,0.192V11.495z"/>
	<path class="st1" d="M380.764,20.088l-5.28-16.177h2.256l2.521,7.969c0.696,2.184,1.296,4.152,1.728,6.048h0.048
		c0.456-1.872,1.128-3.912,1.848-6.024l2.736-7.992h2.232l-5.785,16.177H380.764z"/>
	<path class="st1" d="M394.996,3.911v16.177h-2.088V3.911H394.996z"/>
	<path class="st1" d="M412.171,19.561c-0.769,0.384-2.304,0.768-4.272,0.768c-4.561,0-7.992-2.88-7.992-8.185
		c0-5.064,3.432-8.497,8.449-8.497c2.016,0,3.287,0.433,3.84,0.721l-0.504,1.704c-0.793-0.385-1.92-0.673-3.265-0.673
		c-3.792,0-6.312,2.425-6.312,6.673c0,3.961,2.28,6.505,6.216,6.505c1.273,0,2.568-0.265,3.409-0.672L412.171,19.561z"/>
	<path class="st1" d="M425.037,12.504h-6.289v5.832h7.009v1.752h-9.097V3.911h8.736v1.752h-6.648v5.112h6.289V12.504z"/>
	<path class="st1" d="M430.41,17.544c0.936,0.576,2.304,1.056,3.744,1.056c2.136,0,3.384-1.128,3.384-2.76
		c0-1.513-0.864-2.376-3.048-3.217c-2.641-0.936-4.272-2.304-4.272-4.584c0-2.521,2.088-4.393,5.232-4.393
		c1.656,0,2.856,0.384,3.576,0.792l-0.576,1.704c-0.528-0.288-1.608-0.768-3.072-0.768c-2.208,0-3.048,1.32-3.048,2.424
		c0,1.513,0.984,2.257,3.216,3.12c2.736,1.057,4.128,2.377,4.128,4.753c0,2.496-1.848,4.656-5.664,4.656
		c-1.561,0-3.264-0.456-4.128-1.032L430.41,17.544z"/>
</g>
</svg>